<svg id="Layer_1" data-name="Layer 1" xmlns="http://www.w3.org/2000/svg" viewBox="0 0 122.23 122.89"><defs><style>.cls-1{fill:red;}.cls-2{fill:#fff;}.cls-3{fill:#0072bc;}.cls-4{fill:#ed1c24;}.cls-5{fill:#fff800;}</style></defs><title>logo_bctt-01</title><ellipse class="cls-1" cx="61.12" cy="61.44" rx="61.12" ry="61.44"/><ellipse class="cls-2" cx="61.12" cy="61.44" rx="56.5" ry="56.8"/><ellipse class="cls-3" cx="61.12" cy="61.44" rx="54.12" ry="54.41"/><ellipse class="cls-2" cx="61.12" cy="61.21" rx="52.76" ry="53.05"/><path class="cls-4" d="M61.52,100.63A24.68,24.68,0,1,1,86.07,76h0A24.61,24.61,0,0,1,61.52,100.63Zm0-48.3A23.62,23.62,0,1,0,84.88,76.09V76h0A23.56,23.56,0,0,0,61.52,52.33Z"/><path class="cls-4" d="M61.49,103.94A29.9,29.9,0,1,1,91.23,74a29.82,29.82,0,0,1-29.74,29.9Zm0-58.71A28.78,28.78,0,1,0,90.11,74h0A28.77,28.77,0,0,0,61.49,45.23Z"/><path class="cls-4" d="M62.61,101.9a33.15,33.15,0,1,1,33-33.15h0A33.09,33.09,0,0,1,62.61,101.9Zm0-65.2A32.05,32.05,0,1,0,94.49,68.75h0A32,32,0,0,0,62.61,36.7Z"/><path class="cls-4" d="M61.79,100.8A36.73,36.73,0,1,1,98.46,64h0A36.67,36.67,0,0,1,61.9,100.8Zm0-72.4A35.67,35.67,0,1,0,97.24,64.11s0,0,0-.07A35.58,35.58,0,0,0,61.79,28.4Z"/><path class="cls-4" d="M61.29,99.75a40.25,40.25,0,1,1,40-40.25h0A40.14,40.14,0,0,1,61.29,99.75Zm0-79.26a39.15,39.15,0,1,0,38.94,39.15v-.1h0A39.08,39.08,0,0,0,61.29,20.48Z"/><path class="cls-3" d="M92.35,68.27a36.64,36.64,0,0,0-10.19-5.56A23.93,23.93,0,0,0,62.1,65c0,.31-.81,0-.81,0a25.41,25.41,0,0,0-11.82-4.3H43.19a30.67,30.67,0,0,0-15,5.94c-7.84,5.8-18,1-20.58-.2v1.06a54,54,0,0,0,106.78,3.41,2.71,2.71,0,0,1,0-.48C102.47,73.26,94.56,70,92.35,68.27Z"/><path class="cls-2" d="M59.55,86.64c-13.21-9.32-30-3.41-33.24-2.83a43.91,43.91,0,0,1-12.19,1A51,51,0,0,1,9.71,69.47v-1C12,69.6,22,74.21,29.51,68.68A29.45,29.45,0,0,1,43.87,63h6A23.93,23.93,0,0,1,61,67.18S60.5,77.69,60.47,80a35,35,0,0,1-.41,6.62A.61.61,0,0,1,59.55,86.64Z"/><path class="cls-2" d="M62.07,86.67c13.58-8.7,30.73-1.88,34-1.06a26.62,26.62,0,0,0,10.83,1,38.15,38.15,0,0,0,5-12.8v-1a23.35,23.35,0,0,1-18.06-1.64c-3.57-1.5-5.47-4.71-13.58-7.13a22.23,22.23,0,0,0-6-.65A25.87,25.87,0,0,0,62.27,66.8s-.58,10.58-.65,12.9a39.88,39.88,0,0,0,0,6.83A.61.61,0,0,0,62.07,86.67Z"/><path class="cls-5" d="M53.61,107.43,52.36,104H48.48l-1.22,3.41H44.44l4.72-11.85h2.38l5,12Zm-2.17-5.56L50.35,99l-1.05,2.83Z"/><path class="cls-5" d="M55.68,106.85H54l-1.26-3.41H48.08l-1.22,3.41H45.29L49.57,96h1.6Zm-3.4-4.44-2-5.05-1.83,5.05Z"/><path class="cls-5" d="M62,107.29a4.16,4.16,0,0,1-2.89-1A3.22,3.22,0,0,1,58,103.84V103h2.92v.55c0,1.37.65,1.37,1,1.37a1.25,1.25,0,0,0,.88-.24s.31-.31.31-1.43V95.58h2.92v7.71A4.08,4.08,0,0,1,65,106.4,4.33,4.33,0,0,1,62,107.29Z"/><path class="cls-5" d="M65.43,103.16A3.07,3.07,0,0,1,62,106.64a3.38,3.38,0,0,1-2.41-.79,2.7,2.7,0,0,1-.88-2.12v-.27H60.3q0,1.91,1.66,1.91a2,2,0,0,0,1.36-.41,2.47,2.47,0,0,0,.48-1.81V96h1.63Z"/><path class="cls-5" d="M73.1,107.29a4.81,4.81,0,0,1-3.8-1.64,7.41,7.41,0,0,1,0-8.7,5.17,5.17,0,0,1,6.79-.65,4,4,0,0,1,1.49,2.83v.61H75.14v-.51A1.61,1.61,0,0,0,74.49,98a2.74,2.74,0,0,0-3.6.44,5.49,5.49,0,0,0,0,5.6,2.71,2.71,0,0,0,3.8.38,1.85,1.85,0,0,0,.65-1.33v-.51h2.44v.61a4.17,4.17,0,0,1-1.46,3A4.8,4.8,0,0,1,73.1,107.29Z"/><path class="cls-5" d="M73.1,106.71a4.27,4.27,0,0,1-3.4-1.47,6.86,6.86,0,0,1,0-8,4.67,4.67,0,0,1,6.21-.55,3.42,3.42,0,0,1,1.26,2.46H75.82A2.15,2.15,0,0,0,75,97.63a3.38,3.38,0,0,0-4.31.51,6,6,0,0,0,0,6.32A3.38,3.38,0,0,0,75,105a2.39,2.39,0,0,0,.81-1.74h1.36a3.63,3.63,0,0,1-1.26,2.59A4.3,4.3,0,0,1,73.1,106.71Z"/><path class="cls-3" d="M13.22,63.12H14.7a1.49,1.49,0,0,0,.46,0,.36.36,0,0,0,.16-.16.63.63,0,0,0,.07-.32v-.16h.13l0,2.49h-.13V64.8a.67.67,0,0,0-.07-.33.33.33,0,0,0-.17-.14,1.46,1.46,0,0,0-.44,0l-3.14,0a1.58,1.58,0,0,0-.46,0,.34.34,0,0,0-.16.16.64.64,0,0,0-.07.32v.16h-.13l0-2.49h.13v.16a.66.66,0,0,0,.07.33.33.33,0,0,0,.17.15,1.44,1.44,0,0,0,.44,0h1.35V61.44H11.57a1.56,1.56,0,0,0-.46,0,.35.35,0,0,0-.16.16.65.65,0,0,0-.07.32v.15h-.13l0-2.49h.13v.15a.65.65,0,0,0,.07.33.33.33,0,0,0,.17.15,1.42,1.42,0,0,0,.44,0l3.14,0a1.56,1.56,0,0,0,.46,0,.35.35,0,0,0,.16-.16.64.64,0,0,0,.07-.32v-.15h.13l0,2.49h-.13V62a.66.66,0,0,0-.07-.33.34.34,0,0,0-.17-.15,1.44,1.44,0,0,0-.44,0H13.23Z"/><path class="cls-3" d="M11.15,55.8a2.37,2.37,0,0,1,2.76-2.21,2.55,2.55,0,0,1,1.51.74,2.36,2.36,0,0,1,.63,2.09,2.41,2.41,0,0,1-1.13,1.85,2.52,2.52,0,0,1-1.7.33,2.38,2.38,0,0,1-1.65-1A2.3,2.3,0,0,1,11.15,55.8Zm.23,0a1.07,1.07,0,0,0,.53,1.08,3.57,3.57,0,0,0,1.52.49,3.06,3.06,0,0,0,1.85-.18,1,1,0,0,0,.52-.77,1,1,0,0,0-.09-.62,1.44,1.44,0,0,0-.65-.58,4,4,0,0,0-1.25-.35,4.29,4.29,0,0,0-1.43,0,1.39,1.39,0,0,0-.72.35A1.08,1.08,0,0,0,11.38,55.79Zm4.92.7a.58.58,0,1,1,.11.43A.56.56,0,0,1,16.3,56.49Z"/><path class="cls-3" d="M12.92,47.5l1.6.43,0,.13a1.76,1.76,0,0,0-1.11.3,1.47,1.47,0,0,0-.58.83,1.43,1.43,0,0,0,0,.86,1.51,1.51,0,0,0,.51.7,3,3,0,0,0,1.08.52,4,4,0,0,0,1.17.14,1.54,1.54,0,0,0,.9-.28,1.41,1.41,0,0,0,.49-.79,1.75,1.75,0,0,0,0-.85,2.85,2.85,0,0,0-.45-.94l.4.11a2.63,2.63,0,0,1,.37,1,2.55,2.55,0,0,1-.08,1,2.9,2.9,0,0,1-.65,1.23,2.17,2.17,0,0,1-1.08.66,2.46,2.46,0,0,1-1.26,0,2.6,2.6,0,0,1-1.83-1.85,2.62,2.62,0,0,1,0-1.33,2.91,2.91,0,0,1,.49-1,1.6,1.6,0,0,0,.23-.37.26.26,0,0,0,0-.21.44.44,0,0,0-.23-.17Z"/><path class="cls-3" d="M16.29,39.54l.12.05a.77.77,0,0,0,.06.54,4.37,4.37,0,0,0,.57.74l2.64,3,0,.11-4.13-.07a4.82,4.82,0,0,0-.9,0,.57.57,0,0,0-.29.28l-.12-.05.94-2.08.12.05,0,.07a.81.81,0,0,0-.1.42.18.18,0,0,0,.11.14l.15,0,.5,0,2.58.05-1.54-1.73q-.28-.31-.38-.4a.81.81,0,0,0-.19-.13.32.32,0,0,0-.19,0,.36.36,0,0,0-.18.1,1.08,1.08,0,0,0-.22.34L15.65,41Z"/><path class="cls-3" d="M22,38.83l.11.06-1.23,2.17L20.81,41l.08-.14a.66.66,0,0,0,.1-.33.32.32,0,0,0-.08-.21,1.49,1.49,0,0,0-.37-.25l-2.72-1.55a1.57,1.57,0,0,0-.42-.19.36.36,0,0,0-.22.06.64.64,0,0,0-.22.24l-.08.14-.11-.06L18,36.53l.11.06-.08.14a.66.66,0,0,0-.1.33.33.33,0,0,0,.08.21,1.44,1.44,0,0,0,.36.25l2.73,1.55a1.5,1.5,0,0,0,.42.19.36.36,0,0,0,.22-.06A.64.64,0,0,0,22,39Z"/><path class="cls-3" d="M19.82,34.27l1.59,1.11.05-.08a.75.75,0,0,0,.14-.7,1.76,1.76,0,0,0-.54-.69l.08-.11,2,1.43-.08.11a1.89,1.89,0,0,0-.65-.24.77.77,0,0,0-.47.06,1.21,1.21,0,0,0-.37.38l1.1.77a1.94,1.94,0,0,0,.42.25.29.29,0,0,0,.19,0,.59.59,0,0,0,.21-.21l.16-.23A1.54,1.54,0,0,0,23.63,34l.07-.11,1.12,1-2.36,3.38-.11-.07.09-.13a.64.64,0,0,0,.13-.32.31.31,0,0,0-.06-.21,1.44,1.44,0,0,0-.34-.29l-2.57-1.79a2.42,2.42,0,0,0-.34-.21.34.34,0,0,0-.23,0,.6.6,0,0,0-.29.24l-.09.13-.11-.07,2.28-3.27,1.16.81-.08.11a1.72,1.72,0,0,0-.77-.19,1.06,1.06,0,0,0-.57.24,2.84,2.84,0,0,0-.47.57Zm-.9-.81.37-.54.75-.17-.1.14-.62.47-.21.72-.09.14Zm5,3.36a.58.58,0,0,1,.82-.15.56.56,0,0,1,.24.38.58.58,0,0,1-.1.44.59.59,0,0,1-1-.67Z"/><path class="cls-3" d="M22.91,29.78l3.77.2-1.53-1.36a1,1,0,0,0-.51-.29.68.68,0,0,0-.52.29l-.1-.09,1-1.18.1.09a1.24,1.24,0,0,0-.19.37.41.41,0,0,0,0,.25,1.39,1.39,0,0,0,.32.36l3,2.63-.08.09-5.11-.22,2.27,2a.67.67,0,0,0,.54.23.69.69,0,0,0,.39-.23l.08-.08.1.09-1.12,1.26-.1-.09a.77.77,0,0,0,.24-.52.76.76,0,0,0-.3-.47L22.69,30.9h-.16a.94.94,0,0,0-.36,0,.83.83,0,0,0-.27.21l-.1-.09Z"/><path class="cls-3" d="M31.42,24.73a2.45,2.45,0,0,1,1-.3,1,1,0,0,1,.83.4,1.1,1.1,0,0,1,.22,1,2.41,2.41,0,0,1-.93,1.3l-1.88,1.53-.08-.1a1.06,1.06,0,0,0,.31-.33.36.36,0,0,0,0-.23,1.47,1.47,0,0,0-.27-.41l-1.95-2.4a1.5,1.5,0,0,0-.34-.35.35.35,0,0,0-.23,0,1.11,1.11,0,0,0-.38.23l-.08-.1,1.78-1.44a3.23,3.23,0,0,1,1-.62,1.2,1.2,0,0,1,.69,0,1.08,1.08,0,0,1,.54.35.87.87,0,0,1,.19.63A1.8,1.8,0,0,1,31.42,24.73Zm-1.05.73a1.83,1.83,0,0,0,.5-.55.83.83,0,0,0,.08-.47,1.14,1.14,0,0,0-.65-.81.79.79,0,0,0-.47,0,1.92,1.92,0,0,0-.64.39Zm.17.21,1,1.19.11.14a.39.39,0,0,0,.26.16.39.39,0,0,0,.28-.11,1.08,1.08,0,0,0,.32-.42.86.86,0,0,0,.06-.51,1.1,1.1,0,0,0-.24-.49,1.17,1.17,0,0,0-.5-.37.83.83,0,0,0-.56,0A2.31,2.31,0,0,0,30.54,25.67Z"/><path class="cls-3" d="M34.15,18.14l-.33,1.65-.25.16-.31-1.25Zm2.15,4.6-1.42.9.08.5a1,1,0,0,0,.12.38.32.32,0,0,0,.3.16,1.38,1.38,0,0,0,.44-.18l.07.11-1.34.85-.07-.11a.71.71,0,0,0,.24-.41,2.87,2.87,0,0,0,0-.83L34.08,20l.06,0,3.55,2.38a2.37,2.37,0,0,0,.72.37.55.55,0,0,0,.35-.07l.07.11L36.87,24l-.07-.11.08-.05a.72.72,0,0,0,.29-.27.18.18,0,0,0,0-.18l-.09-.1-.23-.17Zm-.24-.16-1.48-1,.26,1.78Z"/><path class="cls-3" d="M39.59,17a2.36,2.36,0,0,1,3.36,1.1,2.54,2.54,0,0,1,.2,1.67,2.36,2.36,0,0,1-1.41,1.68,2.41,2.41,0,0,1-2.17.06,2.53,2.53,0,0,1-1.2-1.24,2.38,2.38,0,0,1-.1-1.91A2.3,2.3,0,0,1,39.59,17Zm.13.19a1.07,1.07,0,0,0-.61,1,3.57,3.57,0,0,0,.42,1.54,3.05,3.05,0,0,0,1.16,1.45,1,1,0,0,0,.93,0,1,1,0,0,0,.47-.42,1.43,1.43,0,0,0,.13-.86,4,4,0,0,0-.4-1.24,4.24,4.24,0,0,0-.76-1.2,1.38,1.38,0,0,0-.69-.41A1.05,1.05,0,0,0,39.72,17.18Z"/><path class="cls-3" d="M49.82,13.34l.44,1.59-.13,0a1.76,1.76,0,0,0-.82-.8,1.47,1.47,0,0,0-1-.08,1.41,1.41,0,0,0-.72.47,1.5,1.5,0,0,0-.35.79,3.07,3.07,0,0,0,.1,1.2,3.94,3.94,0,0,0,.47,1.08,1.55,1.55,0,0,0,.7.63,1.41,1.41,0,0,0,.93,0,1.74,1.74,0,0,0,.74-.41,2.82,2.82,0,0,0,.58-.87l.11.4a2.62,2.62,0,0,1-.64.81,2.53,2.53,0,0,1-.93.45,2.89,2.89,0,0,1-1.39.07,2.17,2.17,0,0,1-1.12-.6A2.46,2.46,0,0,1,46.15,17a2.61,2.61,0,0,1,.67-2.51A2.6,2.6,0,0,1,48,13.85a2.94,2.94,0,0,1,1.08-.08,1.62,1.62,0,0,0,.43,0,.26.26,0,0,0,.17-.13.44.44,0,0,0,0-.28Z"/><path class="cls-3" d="M53.39,15.3l.22,1.46a1.5,1.5,0,0,0,.11.45.35.35,0,0,0,.18.13.63.63,0,0,0,.33,0l.16,0,0,.13-2.47.37,0-.13.16,0a.67.67,0,0,0,.32-.12.32.32,0,0,0,.11-.19,1.49,1.49,0,0,0,0-.44L52,13.83a1.52,1.52,0,0,0-.1-.45.35.35,0,0,0-.18-.14.64.64,0,0,0-.33,0l-.16,0,0-.13,2.47-.36,0,.13-.16,0a.66.66,0,0,0-.32.12.34.34,0,0,0-.12.19,1.44,1.44,0,0,0,0,.44l.2,1.33L55,14.75l-.2-1.33a1.58,1.58,0,0,0-.11-.45.36.36,0,0,0-.18-.13.65.65,0,0,0-.33,0l-.15,0,0-.13,2.46-.37,0,.13-.15,0a.65.65,0,0,0-.32.12.33.33,0,0,0-.12.19,1.45,1.45,0,0,0,0,.44l.46,3.1a1.6,1.6,0,0,0,.11.45.35.35,0,0,0,.18.13A.63.63,0,0,0,57,17l.15,0,0,.13-2.46.36,0-.13.15,0a.64.64,0,0,0,.32-.12A.33.33,0,0,0,55.3,17a1.4,1.4,0,0,0,0-.44l-.22-1.46Z"/><path class="cls-3" d="M60.27,16.82V17l-2.49.12v-.13h.16a.65.65,0,0,0,.33-.09.32.32,0,0,0,.13-.17,1.4,1.4,0,0,0,0-.45l-.15-3.13a1.55,1.55,0,0,0-.06-.45.36.36,0,0,0-.16-.15.62.62,0,0,0-.32-.05h-.16v-.13L60,12.19v.13h-.16a.66.66,0,0,0-.33.09.34.34,0,0,0-.14.18,1.42,1.42,0,0,0,0,.44l.15,3.13a1.5,1.5,0,0,0,.06.46.36.36,0,0,0,.17.15.63.63,0,0,0,.32.05Zm-.48-6.25-1.1,1.27h-.3l.35-1.24Z"/><path class="cls-3" d="M68.33,12.63v.13a.77.77,0,0,0-.49.23,4.28,4.28,0,0,0-.51.78l-2,3.48h-.11l-1.28-3.92a4.9,4.9,0,0,0-.32-.84.57.57,0,0,0-.36-.18v-.13l2.28.21v.13h-.08a.81.81,0,0,0-.43,0,.17.17,0,0,0-.09.15.51.51,0,0,0,0,.15c0,.06.06.22.15.48l.79,2.46,1.13-2q.2-.37.25-.49a.83.83,0,0,0,.06-.22.32.32,0,0,0,0-.19.36.36,0,0,0-.15-.14,1.11,1.11,0,0,0-.39-.1v-.13Z"/><path class="cls-3" d="M71.47,16.74l-1.65-.36-.29.41a1.06,1.06,0,0,0-.18.35.32.32,0,0,0,.1.32,1.37,1.37,0,0,0,.44.18l0,.13-1.55-.33,0-.13a.71.71,0,0,0,.46-.12,2.83,2.83,0,0,0,.55-.62l2.47-3.36h.07l.85,4.18a2.38,2.38,0,0,0,.25.77.55.55,0,0,0,.3.19l0,.13L71,18l0-.13.09,0a.74.74,0,0,0,.4,0,.19.19,0,0,0,.11-.14.44.44,0,0,0,0-.13s0-.11,0-.28Zm-.06-.28-.35-1.75L70,16.15Zm-.32-5,1,.22L72.26,13,72,12.94Z"/><path class="cls-3" d="M81.56,16.47l-.49,1.2-.12,0a2,2,0,0,0,0-.69,1,1,0,0,0-.23-.43,1.2,1.2,0,0,0-.41-.23L80,16.13l-1.38,3.41a1.52,1.52,0,0,0-.13.44.37.37,0,0,0,.09.21.64.64,0,0,0,.27.18l.15.06,0,.12-2.31-.94,0-.12.15.06a.64.64,0,0,0,.34.06.34.34,0,0,0,.2-.1,1.45,1.45,0,0,0,.2-.4l1.38-3.41-.32-.13a1,1,0,0,0-.73-.07,1.35,1.35,0,0,0-.66.61l-.12,0,.49-1.2Z"/><path class="cls-3" d="M82.68,16.94l2.18,1.15-.06.11-.11-.06a.87.87,0,0,0-.36-.13.33.33,0,0,0-.21.07,1.72,1.72,0,0,0-.28.43l-1.09,2.06a2.37,2.37,0,0,0-.31.79.8.8,0,0,0,.12.45,1.05,1.05,0,0,0,.43.38,1.21,1.21,0,0,0,.66.15,1.07,1.07,0,0,0,.59-.23,3,3,0,0,0,.62-.88l.91-1.72a1.11,1.11,0,0,0,.15-.44.39.39,0,0,0-.06-.25,1,1,0,0,0-.36-.28l.06-.11,1.46.77-.06.12-.09,0a.63.63,0,0,0-.33-.08.45.45,0,0,0-.28.12,1.22,1.22,0,0,0-.23.34l-.85,1.6a4.68,4.68,0,0,1-.67,1,1.35,1.35,0,0,1-.8.35,2,2,0,0,1-1.18-.27,2.22,2.22,0,0,1-.77-.59,1.41,1.41,0,0,1-.31-.81,2,2,0,0,1,.28-.92L82.83,18a1.71,1.71,0,0,0,.2-.47A.34.34,0,0,0,83,17.3a1,1,0,0,0-.34-.24Z"/><path class="cls-3" d="M92.07,22.66l-.07.11a.71.71,0,0,0-.38-.09,3.72,3.72,0,0,0-.92.34l-1.83.83-.66.95a1.62,1.62,0,0,0-.23.4.36.36,0,0,0,0,.22.58.58,0,0,0,.21.23l.22.15-.07.11-2.2-1.53.07-.11.21.14a.65.65,0,0,0,.32.13.33.33,0,0,0,.21-.06,1.42,1.42,0,0,0,.28-.34l.55-.79L88.07,21a3.05,3.05,0,0,0,0-.85.59.59,0,0,0-.24-.3l.07-.11,1.88,1.3-.07.11-.08-.06a.52.52,0,0,0-.27-.12.17.17,0,0,0-.14.06,2.16,2.16,0,0,0-.13.68l-.19,1.79,1.52-.69a1.92,1.92,0,0,0,.66-.39.19.19,0,0,0,0-.18.87.87,0,0,0-.3-.34l.08-.11Z"/><path class="cls-3" d="M94.07,24.73l-1.28,1.46.07.06a.75.75,0,0,0,.68.22,1.75,1.75,0,0,0,.75-.46l.1.09L92.74,28l-.1-.09a1.86,1.86,0,0,0,.31-.62.76.76,0,0,0,0-.47,1.2,1.2,0,0,0-.33-.41l-.89,1a2,2,0,0,0-.29.38.29.29,0,0,0,0,.19.58.58,0,0,0,.18.24l.21.19a1.54,1.54,0,0,0,2.06.15l.1.09-1.16,1-3.09-2.73.09-.1.12.1a.67.67,0,0,0,.3.17.33.33,0,0,0,.22,0,1.5,1.5,0,0,0,.32-.31l2.07-2.35a2.32,2.32,0,0,0,.25-.31.33.33,0,0,0,0-.23.6.6,0,0,0-.21-.32l-.12-.11.09-.1,3,2.64L95,27l-.1-.09a1.73,1.73,0,0,0,.28-.75,1.06,1.06,0,0,0-.17-.59,2.83,2.83,0,0,0-.51-.54ZM96,23.86l-.35,1.48-.2-.18-.15-1.1-1.11,0-.22-.19,1.44-.5Z"/><path class="cls-3" d="M98.2,28.33l-.63,3.73,1.53-1.37a1,1,0,0,0,.35-.48.68.68,0,0,0-.23-.55l.1-.09,1.05,1.17-.1.09a1.2,1.2,0,0,0-.35-.24.4.4,0,0,0-.26,0,1.36,1.36,0,0,0-.39.27l-3,2.65-.08-.09.8-5-2.26,2a.66.66,0,0,0-.29.51.69.69,0,0,0,.18.42l.08.08-.1.09-1.13-1.26.1-.09a.59.59,0,0,0,1,.06L97.12,28l0-.16a.93.93,0,0,0,0-.37.8.8,0,0,0-.17-.29l.1-.09Z"/><path class="cls-3" d="M104.79,37.15l-1.08.7-.07-.11a2,2,0,0,0,.4-.56,1,1,0,0,0,.06-.49,1.2,1.2,0,0,0-.2-.43l-.19-.3-3.09,2a1.53,1.53,0,0,0-.36.28.37.37,0,0,0,0,.22.64.64,0,0,0,.12.31l.09.13-.11.07-1.35-2.1.11-.07.09.13a.65.65,0,0,0,.24.24.33.33,0,0,0,.22,0A1.44,1.44,0,0,0,100,37l3.09-2-.19-.29a1,1,0,0,0-.55-.48,1.35,1.35,0,0,0-.89.11l-.07-.11,1.09-.7Z"/><path class="cls-3" d="M103.88,41l-1.2.59a1.52,1.52,0,0,0-.42.26.35.35,0,0,0-.07.22,1.12,1.12,0,0,0,.14.43l-.12.06-1.07-2.19.12-.06a1.06,1.06,0,0,0,.25.38.36.36,0,0,0,.22.08,1.47,1.47,0,0,0,.46-.17L105,39.21a1.46,1.46,0,0,0,.42-.26.34.34,0,0,0,.07-.22,1.11,1.11,0,0,0-.14-.43l.12-.06,1,2a4.91,4.91,0,0,1,.45,1.19,1.27,1.27,0,0,1-.11.78,1.18,1.18,0,0,1-.57.56,1.13,1.13,0,0,1-1,0,1.57,1.57,0,0,1-.59-.47l-.95,1.74a2.44,2.44,0,0,0-.21.46.59.59,0,0,0,0,.35l-.12.06-.66-1.35L104,41.27Zm2.1-1-1.87.92.09.18a2.21,2.21,0,0,0,.4.62.73.73,0,0,0,.46.2,1.18,1.18,0,0,0,.61-.14.93.93,0,0,0,.48-1.43Z"/><path class="cls-3" d="M108,43.74l.81,2.32-.12,0,0-.12a.85.85,0,0,0-.18-.34.32.32,0,0,0-.2-.09,1.67,1.67,0,0,0-.5.13l-2.2.77a2.4,2.4,0,0,0-.77.37.81.81,0,0,0-.22.41,1.06,1.06,0,0,0,.06.57,1.19,1.19,0,0,0,.38.56,1.07,1.07,0,0,0,.59.23,2.91,2.91,0,0,0,1.05-.22l1.83-.64a1.15,1.15,0,0,0,.41-.21.39.39,0,0,0,.12-.22,1,1,0,0,0-.07-.45l.12,0,.54,1.56-.12,0,0-.09a.64.64,0,0,0-.19-.29.45.45,0,0,0-.29-.1,1.22,1.22,0,0,0-.4.09l-1.71.6a4.72,4.72,0,0,1-1.18.29,1.35,1.35,0,0,1-.83-.28,2,2,0,0,1-.68-1,2.22,2.22,0,0,1-.16-1,1.4,1.4,0,0,1,.33-.8,2,2,0,0,1,.83-.49l2.2-.77a1.64,1.64,0,0,0,.47-.21.34.34,0,0,0,.1-.2,1,1,0,0,0-.08-.41Z"/><path class="cls-3" d="M111,54.29l-.13,0a.71.71,0,0,0-.21-.32,3.68,3.68,0,0,0-.91-.37L107.87,53l-1.13.25a1.56,1.56,0,0,0-.44.14.35.35,0,0,0-.12.18.59.59,0,0,0,0,.31l.06.26-.13,0-.58-2.61.13,0,.05.24a.66.66,0,0,0,.14.31.34.34,0,0,0,.2.11,1.46,1.46,0,0,0,.44-.06l.93-.21,1.75-1.53a3,3,0,0,0,.59-.61.6.6,0,0,0,0-.38l.13,0,.49,2.23-.13,0,0-.1a.51.51,0,0,0-.12-.27.16.16,0,0,0-.14-.05,2.16,2.16,0,0,0-.56.41l-1.36,1.18,1.59.53a1.9,1.9,0,0,0,.75.16.18.18,0,0,0,.13-.12.87.87,0,0,0,0-.45l.13,0Z"/><path class="cls-3" d="M111.09,57.21l-1.93.2v.09a.75.75,0,0,0,.35.63,1.75,1.75,0,0,0,.86.17v.13l-2.48.25v-.13a1.86,1.86,0,0,0,.65-.24.76.76,0,0,0,.32-.35,1.21,1.21,0,0,0,0-.53l-1.33.14a2,2,0,0,0-.48.08.29.29,0,0,0-.13.14.59.59,0,0,0,0,.3l0,.28a1.54,1.54,0,0,0,1.41,1.51V60l-1.53-.06-.41-4.1h.13l0,.16a.66.66,0,0,0,.11.32.32.32,0,0,0,.18.12,1.45,1.45,0,0,0,.44,0l3.12-.31.39-.06a.34.34,0,0,0,.18-.15.6.6,0,0,0,.06-.37l0-.16h.13l.4,4-1.4.14v-.13a1.73,1.73,0,0,0,.71-.36,1.06,1.06,0,0,0,.28-.55,2.78,2.78,0,0,0,0-.74Zm1.21,0,.07.65-.45.61,0-.17.16-.76-.31-.68,0-.16Zm.66-.65.11,1.05-.54.23,0-.3Z"/><path class="cls-3" d="M111.67,62.64l-3,2.31,2,0a1,1,0,0,0,.58-.11.68.68,0,0,0,.21-.56h.13l0,1.58h-.13a1.19,1.19,0,0,0-.1-.41.4.4,0,0,0-.2-.16,1.36,1.36,0,0,0-.48-.07l-4-.06v-.12l4-3.16-3,0a.67.67,0,0,0-.56.18.69.69,0,0,0-.15.43v.11h-.13l0-1.69h.13a.59.59,0,0,0,.69.71l3.36.05.13-.1a.93.93,0,0,0,.25-.26.8.8,0,0,0,.07-.33h.13Z"/></svg>