<svg id="Layer_1" data-name="Layer 1" xmlns="http://www.w3.org/2000/svg" xmlns:xlink="http://www.w3.org/1999/xlink" viewBox="0 0 658.22 84.11"><defs><style>.cls-1{fill:#333;}.cls-2{fill:#ea1e24;}.cls-3{fill:url(#linear-gradient);}</style><linearGradient id="linear-gradient" x1="125.76" y1="52.49" x2="525.26" y2="52.49" gradientUnits="userSpaceOnUse"><stop offset="0" stop-color="#b5dafc"/><stop offset="0.22" stop-color="#e7f3fe"/><stop offset="0.48" stop-color="#fff"/><stop offset="0.83" stop-color="#d5eafd"/><stop offset="1" stop-color="#b1d8fc"/></linearGradient></defs><title>text_bctt</title><path class="cls-1" d="M4.35,38.86l0-27.27h6.54V21.88h5.25V11.57H22.5l0,27.27H16.14V27.53H10.88V38.85Z"/><path class="cls-1" d="M28.73,25.19A50.44,50.44,0,0,1,29.08,18a9.13,9.13,0,0,1,1.19-3.54,7.31,7.31,0,0,1,3.14-2.69,11.28,11.28,0,0,1,4.67-.88,11.15,11.15,0,0,1,4.66.87,7.36,7.36,0,0,1,3.12,2.68A8.9,8.9,0,0,1,47.1,18a50.28,50.28,0,0,1,.37,7.17,50.36,50.36,0,0,1-.35,7.16,8.9,8.9,0,0,1-1.23,3.57,7.31,7.31,0,0,1-3.11,2.68,11.14,11.14,0,0,1-4.66.89,11.21,11.21,0,0,1-4.67-.88,7.42,7.42,0,0,1-3.15-2.67,9.13,9.13,0,0,1-1.2-3.54A50.51,50.51,0,0,1,28.73,25.19Zm12.06,2.45V22.71q0-4.53-.6-5.6A2.22,2.22,0,0,0,38,16,2.15,2.15,0,0,0,36,17.14q-.58,1.1-.57,5.58v4.92q0,4.43.59,5.55a2.17,2.17,0,0,0,2.13,1.12,2.17,2.17,0,0,0,2.11-1.1Q40.79,32.12,40.79,27.64ZM35.91,45.83V41.19h4.43v4.64Z"/><path class="cls-1" d="M65.16,28.23h6.43c0,.17,0,.34,0,.53s0,.47,0,.85q0,5-2.23,7.41t-6.87,2.43a11.2,11.2,0,0,1-4.67-.88,7.42,7.42,0,0,1-3.15-2.67,9.13,9.13,0,0,1-1.2-3.54,50.51,50.51,0,0,1-.37-7.19A50.44,50.44,0,0,1,53.49,18a9.13,9.13,0,0,1,1.19-3.54,7.43,7.43,0,0,1,3.1-2.67,10.83,10.83,0,0,1,4.59-.9q4.59,0,6.9,2.48t2.31,7.44V21H65.22a9,9,0,0,0-.66-3.9A2.17,2.17,0,0,0,62.49,16a2.15,2.15,0,0,0-2.16,1.38q-.58,1.37-.57,7.25v.51q0,6.32.59,7.75a2.14,2.14,0,0,0,2.16,1.42,2.17,2.17,0,0,0,2.06-1,8.61,8.61,0,0,0,.59-3.85Z"/><path class="cls-1" d="M94.59,38.74,88.31,11.48h6.92l2.43,14.32q.16,1,.38,2.52t.41,3.39l.05-.34q.49-4.27.68-5.54l2.45-14.37h6.9l-6.32,27.28Z"/><path class="cls-1" d="M113.38,38.72l0-27.27h6.54l0,27.27Z"/><path class="cls-1" d="M126.69,38.7l0-27.27,15.22,0v5.3h-8.72v5h8v5.47h-8v6h8.72v5.54Zm1.83-29.56,3.59-5.05h4.32l3.6,5h-2.6l-3.16-2.65-3.16,2.66Zm3.9,36.56V41.07h4.43V45.7Z"/><path class="cls-1" d="M148.2,38.68l0-27.27H155l5.45,16.82q-.33-4.25-.49-7.33t-.16-5.21V11.39h5.83l0,27.27H158.8l-5.49-17.33q.37,3.38.56,6.56t.2,6.17v4.6Z"/><path class="cls-1" d="M184.64,38.63l0-27.27h7a29.42,29.42,0,0,1,4.59.24,7.43,7.43,0,0,1,2.41.83,5.9,5.9,0,0,1,2.28,2.33,7.23,7.23,0,0,1,.78,3.43,6.75,6.75,0,0,1-.71,3.15A9,9,0,0,1,198.68,24a6.52,6.52,0,0,1,2.82,2.5,7.29,7.29,0,0,1,.95,3.8,9.42,9.42,0,0,1-.63,3.45A8,8,0,0,1,200,36.58a6,6,0,0,1-2.69,1.58,19.34,19.34,0,0,1-4.94.47ZM191.16,22h.42a4.29,4.29,0,0,0,2.84-.79,3,3,0,0,0,.91-2.44,2.73,2.73,0,0,0-.91-2.2,3.9,3.9,0,0,0-2.6-.77h-.42l-.24,0Zm0,11.79h.56a4.47,4.47,0,0,0,3.09-.94,3.59,3.59,0,0,0,1-2.8,3,3,0,0,0-1-2.54,5.17,5.17,0,0,0-3.22-.8h-.45Z"/><path class="cls-1" d="M206.43,38.6l6.07-27.28h7.77l6.06,27.27H219.8L219,33.36h-5.14L213,38.6Zm7-29.57L217,4h5.36L216,9Zm1.08,19.41h3.76l-1.89-11.9Z"/><path class="cls-1" d="M230.55,24.94a50.44,50.44,0,0,1,.35-7.19,9.13,9.13,0,0,1,1.19-3.54,7.31,7.31,0,0,1,3.14-2.69,11.29,11.29,0,0,1,4.67-.88,11.16,11.16,0,0,1,4.66.87,7.36,7.36,0,0,1,3.12,2.68,8.9,8.9,0,0,1,1.24,3.56,50.28,50.28,0,0,1,.37,7.17,50.36,50.36,0,0,1-.35,7.16,8.9,8.9,0,0,1-1.23,3.57,7.31,7.31,0,0,1-3.11,2.68,12.72,12.72,0,0,1-9.33,0,7.42,7.42,0,0,1-3.15-2.67,9.13,9.13,0,0,1-1.2-3.54A50.51,50.51,0,0,1,230.55,24.94Zm12.06,2.45V22.46q0-4.53-.6-5.6a2.22,2.22,0,0,0-2.14-1.07,2.15,2.15,0,0,0-2.09,1.1q-.58,1.1-.57,5.58v4.92q0,4.43.59,5.55A2.57,2.57,0,0,0,242,33Q242.62,31.87,242.61,27.38Z"/><path class="cls-1" d="M279.19,28h6.43c0,.17,0,.34,0,.53s0,.47,0,.85q0,5-2.23,7.41t-6.87,2.43a11.2,11.2,0,0,1-4.67-.88,7.42,7.42,0,0,1-3.15-2.67,9.13,9.13,0,0,1-1.2-3.54,50.53,50.53,0,0,1-.37-7.19,50.43,50.43,0,0,1,.35-7.19,9.13,9.13,0,0,1,1.19-3.54,7.42,7.42,0,0,1,3.1-2.67,10.82,10.82,0,0,1,4.59-.9q4.59,0,6.9,2.48t2.31,7.44v.27h-6.36a9,9,0,0,0-.66-3.9,2.17,2.17,0,0,0-2.07-1.12,2.15,2.15,0,0,0-2.16,1.38q-.58,1.37-.57,7.25v.51q0,6.32.59,7.75a2.14,2.14,0,0,0,2.16,1.42,2.17,2.17,0,0,0,2.06-1,8.61,8.61,0,0,0,.59-3.85Z"/><path class="cls-1" d="M292.15,38.5l0-27.27h6.54V21.52h5.25V11.21h6.39l0,27.27h-6.39V27.17h-5.25V38.49Z"/><path class="cls-1" d="M317.1,38.47l0-27.27h6.54l0,27.27Zm.29-29.56L321,3.86h5.36L320,8.91Z"/><path class="cls-1" d="M346.88,38.43,340.6,11.16h6.92l2.43,14.32q.16,1,.38,2.52t.41,3.39l.05-.34q.49-4.27.68-5.54l2.45-14.37h6.9l-6.32,27.28Z"/><path class="cls-1" d="M363.66,38.41l6.07-27.28h7.77l6.06,27.27H377l-.82-5.22h-5.14l-.81,5.23ZM376.53,8.83h-2.62l-6.36-5h5.36Zm-4.81,19.42h3.76l-1.89-11.9Z"/><path class="cls-1" d="M404,38.36l0-22h-5.23v-5.3l17.29,0v5.3h-5.5l0,22Z"/><path class="cls-1" d="M420.9,11.06h6.61l0,17.09q0,3.88.51,4.8a1.84,1.84,0,0,0,1.77.92,1.82,1.82,0,0,0,1.78-1q.49-1,.48-4.76L432,11h6.48l0,17.41a27.1,27.1,0,0,1-.26,4.42,8.2,8.2,0,0,1-.86,2.54,6.06,6.06,0,0,1-2.88,2.7,12,12,0,0,1-4.92.87,11,11,0,0,1-4.56-.8,6.16,6.16,0,0,1-2.8-2.57,9,9,0,0,1-1-3.22,50.28,50.28,0,0,1-.31-6.64Z"/><path class="cls-1" d="M449.24,38.3V26.74L442.78,11h7l2.72,8.62L455.24,11h7.1l-6.41,15.72V38.29Z"/><path class="cls-1" d="M466.66,38.28l0-27.27,15.22,0v5.3h-8.72v5h8v5.47h-8v6h8.72v5.54Zm1.83-29.56,3.59-5.05h4.32l3.6,5h-2.6l-3.16-2.65-3.16,2.66Z"/><path class="cls-1" d="M488.16,38.25l0-27.27h6.81l5.45,16.82q-.33-4.25-.49-7.33t-.16-5.21V11h5.83l0,27.27h-6.83l-5.49-17.33q.37,3.38.56,6.56t.2,6.17v4.6Z"/><path class="cls-1" d="M528,38.2l0-22h-5.23v-5.3l17.29,0v5.3h-5.5l0,22Z"/><path class="cls-1" d="M545,38.18l0-27.27h7.36a29.73,29.73,0,0,1,5.25.32,6.23,6.23,0,0,1,2.65,1.12A5.92,5.92,0,0,1,562,14.7a8.53,8.53,0,0,1,.59,3.33,8.35,8.35,0,0,1-.84,3.95,6.6,6.6,0,0,1-2.62,2.62q3,1.31,3.2,6.21v.09q0,.51,0,1.49.08,4.6,1.57,5.77h-7.65a11,11,0,0,1-.37-1.78,15.92,15.92,0,0,1-.12-2q0-.65,0-1.59t0-1.21a6.17,6.17,0,0,0-.68-3.42,2.81,2.81,0,0,0-2.42-.92h-1.34V38.17Zm6.45-15.93.43,0,.39,0a4.15,4.15,0,0,0,2.88-.8,3.58,3.58,0,0,0,.84-2.69,3.16,3.16,0,0,0-.85-2.49,4.4,4.4,0,0,0-2.88-.73l-.39,0-.43,0Z"/><path class="cls-1" d="M569,10.88h6.61l0,17.09q0,3.88.51,4.8a1.84,1.84,0,0,0,1.77.92,1.82,1.82,0,0,0,1.78-1q.49-1,.48-4.76l0-17.09h6.48l0,17.41a27.16,27.16,0,0,1-.26,4.42,8.21,8.21,0,0,1-.86,2.54,6.06,6.06,0,0,1-2.88,2.7,12,12,0,0,1-4.92.87,11,11,0,0,1-4.56-.8,6.16,6.16,0,0,1-2.8-2.57,9,9,0,0,1-1-3.22,50.28,50.28,0,0,1-.31-6.64Z"/><path class="cls-1" d="M597.32,38.12V26.55l-6.45-15.7h7l2.72,8.62,2.71-8.63h7.1L604,26.54V38.11Z"/><path class="cls-1" d="M614.73,38.09l0-27.27,15.22,0v5.3h-8.72v5h8v5.47h-8v6h8.72v5.54Zm1.83-29.56,3.59-5.05h4.32l3.6,5h-2.6l-3.16-2.65-3.16,2.66Zm13.94-3.45h-2.62l-6.36-5h5.36Z"/><path class="cls-1" d="M636.23,38.07l0-27.27H643l5.45,16.82q-.33-4.25-.49-7.33t-.16-5.21V10.78h5.83l0,27.27h-6.83l-5.49-17.33q.37,3.38.56,6.56t.2,6.17v4.6Z"/><path class="cls-2" d="M2.32,38.86l0-27.27H8.82V21.88h5.25V11.57h6.39l0,27.27H14.1V27.53H8.84V38.85Z"/><path class="cls-2" d="M26.69,25.19A50.44,50.44,0,0,1,27,18a9.13,9.13,0,0,1,1.19-3.54,7.31,7.31,0,0,1,3.14-2.69A11.29,11.29,0,0,1,36,10.89a11.15,11.15,0,0,1,4.66.87,7.36,7.36,0,0,1,3.12,2.68A8.9,8.9,0,0,1,45.06,18a50.28,50.28,0,0,1,.37,7.17,50.36,50.36,0,0,1-.35,7.16,8.9,8.9,0,0,1-1.23,3.57,7.31,7.31,0,0,1-3.11,2.68,11.14,11.14,0,0,1-4.66.89,11.2,11.2,0,0,1-4.67-.88,7.42,7.42,0,0,1-3.15-2.67,9.13,9.13,0,0,1-1.2-3.54A50.51,50.51,0,0,1,26.69,25.19Zm12.06,2.45V22.71q0-4.53-.6-5.6A2.22,2.22,0,0,0,36,16a2.15,2.15,0,0,0-2.09,1.1q-.58,1.1-.57,5.58v4.92q0,4.43.59,5.55a2.17,2.17,0,0,0,2.13,1.12,2.17,2.17,0,0,0,2.11-1.1Q38.76,32.12,38.75,27.64ZM33.87,45.83V41.19H38.3v4.64Z"/><path class="cls-2" d="M63.12,28.23h6.43c0,.17,0,.34,0,.53s0,.47,0,.85q0,5-2.23,7.41t-6.87,2.43a11.21,11.21,0,0,1-4.67-.88,7.42,7.42,0,0,1-3.15-2.67,9.13,9.13,0,0,1-1.2-3.54,50.52,50.52,0,0,1-.37-7.19A50.43,50.43,0,0,1,51.45,18a9.13,9.13,0,0,1,1.19-3.54,7.43,7.43,0,0,1,3.1-2.67,10.82,10.82,0,0,1,4.59-.9q4.59,0,6.9,2.48t2.31,7.44V21H63.19a9,9,0,0,0-.66-3.9A2.17,2.17,0,0,0,60.46,16a2.15,2.15,0,0,0-2.16,1.38q-.58,1.37-.57,7.25v.51q0,6.32.59,7.75a2.14,2.14,0,0,0,2.16,1.42,2.17,2.17,0,0,0,2.06-1,8.61,8.61,0,0,0,.59-3.85Z"/><path class="cls-2" d="M92.55,38.74,86.27,11.48h6.92L95.62,25.8q.16,1,.38,2.52t.41,3.39l.05-.34q.49-4.27.68-5.54L99.6,11.46h6.9l-6.32,27.28Z"/><path class="cls-2" d="M111.35,38.72l0-27.27h6.54l0,27.27Z"/><path class="cls-2" d="M124.66,38.7l0-27.27,15.22,0v5.3h-8.72v5h8v5.47h-8v6h8.72v5.54Zm1.83-29.56,3.59-5.05h4.32l3.6,5h-2.6l-3.16-2.65-3.16,2.66Zm3.9,36.56V41.07h4.43V45.7Z"/><path class="cls-2" d="M146.16,38.68l0-27.27h6.81l5.45,16.82q-.33-4.25-.49-7.33t-.16-5.21V11.39h5.83l0,27.27h-6.83l-5.49-17.33q.37,3.38.56,6.56t.2,6.17v4.6Z"/><path class="cls-2" d="M182.6,38.63l0-27.27h7a29.54,29.54,0,0,1,4.59.24,7.43,7.43,0,0,1,2.41.83,5.9,5.9,0,0,1,2.28,2.33,7.23,7.23,0,0,1,.78,3.43,6.75,6.75,0,0,1-.71,3.15A9,9,0,0,1,196.64,24a6.52,6.52,0,0,1,2.82,2.5,7.29,7.29,0,0,1,.95,3.8,9.42,9.42,0,0,1-.63,3.45A8,8,0,0,1,198,36.58a6,6,0,0,1-2.69,1.58,19.34,19.34,0,0,1-4.94.47ZM189.12,22h.42a4.29,4.29,0,0,0,2.84-.79,3,3,0,0,0,.91-2.44,2.73,2.73,0,0,0-.91-2.2,3.91,3.91,0,0,0-2.6-.77h-.42l-.24,0Zm0,11.79h.56a4.46,4.46,0,0,0,3.09-.94,3.59,3.59,0,0,0,1-2.8,3,3,0,0,0-1-2.54,5.18,5.18,0,0,0-3.22-.8h-.45Z"/><path class="cls-2" d="M204.4,38.6l6.07-27.28h7.77l6.06,27.26h-6.54l-.82-5.22H211.8L211,38.6Zm7-29.57L215,4h5.36L214,9Zm1.08,19.41h3.76l-1.89-11.9Z"/><path class="cls-2" d="M228.51,24.94a50.44,50.44,0,0,1,.35-7.19,9.13,9.13,0,0,1,1.19-3.54,7.31,7.31,0,0,1,3.14-2.69,11.29,11.29,0,0,1,4.67-.88,11.16,11.16,0,0,1,4.66.87,7.36,7.36,0,0,1,3.12,2.68,8.9,8.9,0,0,1,1.24,3.56,50.28,50.28,0,0,1,.37,7.17,50.35,50.35,0,0,1-.35,7.16,8.9,8.9,0,0,1-1.23,3.57,7.3,7.3,0,0,1-3.11,2.68,12.72,12.72,0,0,1-9.33,0,7.42,7.42,0,0,1-3.15-2.67,9.13,9.13,0,0,1-1.2-3.54A50.51,50.51,0,0,1,228.51,24.94Zm12.06,2.45V22.46q0-4.53-.6-5.6a2.22,2.22,0,0,0-2.14-1.07,2.15,2.15,0,0,0-2.09,1.1q-.58,1.1-.57,5.58v4.92q0,4.43.59,5.55A2.57,2.57,0,0,0,240,33Q240.58,31.87,240.58,27.38Z"/><path class="cls-2" d="M277.15,28h6.43c0,.17,0,.34,0,.53s0,.47,0,.85q0,5-2.23,7.41t-6.87,2.43a11.21,11.21,0,0,1-4.67-.88,7.42,7.42,0,0,1-3.15-2.67,9.13,9.13,0,0,1-1.2-3.54,50.52,50.52,0,0,1-.37-7.19,50.43,50.43,0,0,1,.35-7.19,9.13,9.13,0,0,1,1.19-3.54,7.43,7.43,0,0,1,3.1-2.67,10.83,10.83,0,0,1,4.59-.9q4.59,0,6.9,2.48t2.31,7.44v.27h-6.36a9,9,0,0,0-.66-3.9,2.17,2.17,0,0,0-2.07-1.12,2.15,2.15,0,0,0-2.16,1.37q-.58,1.37-.57,7.25v.51q0,6.32.59,7.75a2.14,2.14,0,0,0,2.16,1.42,2.17,2.17,0,0,0,2.06-1,8.61,8.61,0,0,0,.59-3.85Z"/><path class="cls-2" d="M290.11,38.5l0-27.27h6.54V21.52h5.25V11.21h6.39l0,27.27H301.9V27.17h-5.25V38.49Z"/><path class="cls-2" d="M315.06,38.47l0-27.27h6.54l0,27.27Zm.29-29.56L319,3.86h5.36L318,8.91Z"/><path class="cls-2" d="M344.84,38.43l-6.28-27.26h6.92l2.43,14.32q.16,1,.38,2.52t.41,3.39l.05-.34q.49-4.27.68-5.54l2.45-14.37h6.9l-6.32,27.28Z"/><path class="cls-2" d="M361.62,38.41l6.07-27.28h7.77l6.06,27.27H375l-.82-5.22H369l-.81,5.23ZM374.5,8.84h-2.62l-6.36-5h5.36Zm-4.81,19.42h3.76l-1.89-11.9Z"/><path class="cls-2" d="M401.93,38.36l0-22h-5.23v-5.3l17.29,0v5.3h-5.5l0,22Z"/><path class="cls-2" d="M418.86,11.06h6.61l0,17.09q0,3.88.51,4.8a1.84,1.84,0,0,0,1.77.92,1.82,1.82,0,0,0,1.78-1q.49-1,.48-4.76l0-17.09h6.48l0,17.41a27.17,27.17,0,0,1-.26,4.42,8.21,8.21,0,0,1-.86,2.54,6.06,6.06,0,0,1-2.88,2.7,12,12,0,0,1-4.92.87,11,11,0,0,1-4.56-.8,6.16,6.16,0,0,1-2.8-2.57,9,9,0,0,1-1-3.22,50.28,50.28,0,0,1-.31-6.64Z"/><path class="cls-2" d="M447.21,38.3V26.74L440.74,11h7l2.72,8.62L453.2,11h7.1l-6.41,15.72V38.29Z"/><path class="cls-2" d="M464.62,38.28l0-27.27,15.22,0v5.3H471.1v5h8v5.47h-8v6h8.72v5.54Zm1.83-29.56L470,3.67h4.32l3.6,5h-2.6l-3.16-2.65-3.16,2.66Z"/><path class="cls-2" d="M486.12,38.25l0-27.27h6.81l5.45,16.82q-.33-4.25-.49-7.33t-.16-5.21V11h5.83l0,27.27h-6.83l-5.49-17.33q.37,3.38.56,6.56t.2,6.17v4.6Z"/><path class="cls-2" d="M526,38.2l0-22h-5.23v-5.3l17.29,0v5.3h-5.5l0,22Z"/><path class="cls-2" d="M542.94,38.18l0-27.27h7.36a29.7,29.7,0,0,1,5.25.32,6.23,6.23,0,0,1,2.65,1.12A5.92,5.92,0,0,1,560,14.7a8.53,8.53,0,0,1,.59,3.33,8.36,8.36,0,0,1-.84,4,6.6,6.6,0,0,1-2.62,2.62q3,1.31,3.2,6.21v.09q0,.51,0,1.49.08,4.6,1.57,5.77h-7.65a11,11,0,0,1-.37-1.78,15.92,15.92,0,0,1-.12-2q0-.65,0-1.58t0-1.21a6.17,6.17,0,0,0-.68-3.42,2.81,2.81,0,0,0-2.42-.92h-1.34V38.17Zm6.45-15.93.43,0,.39,0a4.15,4.15,0,0,0,2.88-.8,3.58,3.58,0,0,0,.84-2.69,3.16,3.16,0,0,0-.85-2.49,4.4,4.4,0,0,0-2.88-.73l-.39,0-.43,0Z"/><path class="cls-2" d="M566.93,10.88h6.61l0,17.09q0,3.88.51,4.8a1.84,1.84,0,0,0,1.77.92,1.82,1.82,0,0,0,1.78-1q.49-1,.48-4.76l0-17.09h6.48l0,17.41a27.17,27.17,0,0,1-.26,4.42,8.21,8.21,0,0,1-.86,2.54,6.06,6.06,0,0,1-2.88,2.7,12,12,0,0,1-4.92.87,11,11,0,0,1-4.56-.8,6.16,6.16,0,0,1-2.8-2.57,9,9,0,0,1-1-3.22,50.28,50.28,0,0,1-.31-6.64Z"/><path class="cls-2" d="M595.28,38.12V26.55l-6.45-15.7h7l2.72,8.62,2.71-8.63h7.1L602,26.54V38.11Z"/><path class="cls-2" d="M612.69,38.09l0-27.27,15.22,0v5.3h-8.72v5h8v5.47h-8v6h8.72v5.54Zm1.83-29.56,3.59-5.05h4.32l3.6,5h-2.6l-3.16-2.65-3.16,2.66Zm13.94-3.45h-2.62l-6.36-5h5.36Z"/><path class="cls-2" d="M634.2,38.07l0-27.27H641l5.45,16.82q-.33-4.25-.49-7.33t-.16-5.21V10.78h5.83l0,27.27H644.8l-5.49-17.33q.37,3.38.56,6.56t.2,6.17v4.6Z"/><path class="cls-1" d="M58.76,79.26l-2.4-5.42H48.68l-2.4,5.42H44.56l7-16.12h1.85l7.11,16.1ZM52.53,65l-3.23,7.4h6.41Z"/><path class="cls-1" d="M79,75a8.18,8.18,0,0,1-7.6,4.51,8.52,8.52,0,0,1-6.1-2.4,8.2,8.2,0,0,1,0-11.84,8.9,8.9,0,0,1,12.63.45,5.75,5.75,0,0,1,1,1.53H77a6.56,6.56,0,0,0-5.75-2.94,7,7,0,0,0-6.92,6.9A6.5,6.5,0,0,0,66.44,76a6.81,6.81,0,0,0,8.14,1.22A8.24,8.24,0,0,0,77.1,75Z"/><path class="cls-1" d="M95.3,79.21l-2.4-5.42H85.23l-2.4,5.42H81.1l7-16.12H90l7.11,16.1ZM89.07,64.95l-3.23,7.4h6.41Z"/><path class="cls-1" d="M110.53,77.86a8.6,8.6,0,0,1-2.59,1,12.69,12.69,0,0,1-2.79.31h-4.82l0-16.11h4.82a12.18,12.18,0,0,1,2.79.32,8.58,8.58,0,0,1,2.59,1,7.91,7.91,0,0,1,0,13.45Zm-.73-12.08a6.67,6.67,0,0,0-2.6-1,12.52,12.52,0,0,0-1.4-.17q-.61,0-1.44,0H102l0,13.19h2.73q.83,0,1.43,0a10.22,10.22,0,0,0,1.35-.18A6.81,6.81,0,0,0,110,76.43,5.87,5.87,0,0,0,112,74.07a6.91,6.91,0,0,0,.65-3A6.06,6.06,0,0,0,109.8,65.78Z"/><path class="cls-1" d="M118.18,79.18l0-16.11h9v1.47h-7.38v5.78H127v1.47h-7.14v5.94h7.38v1.46Z"/><path class="cls-1" d="M147.07,79.15l0-14.34h0l-6.16,14.35h-1.41l-6.15-14.34h0l0,14.34h-1.66l0-16.11h2.54l6,13.71,6-13.73h2.55l0,16.11Z"/><path class="cls-1" d="M159.17,73.75v5.38h-1.66V73.76L151.77,63h1.83l4.72,9,4.83-9H165Z"/><path class="cls-1" d="M189.65,77a9,9,0,0,1-12.24,0,7.72,7.72,0,0,1-2.63-5.85,8,8,0,0,1,2.55-6,9,9,0,0,1,12.31,0,8,8,0,0,1,0,11.83ZM188.5,66.19a6.93,6.93,0,0,0-5-2,6.86,6.86,0,0,0-5,2.06,6.68,6.68,0,0,0-2.05,4.91,6.38,6.38,0,0,0,2.12,4.79,7.18,7.18,0,0,0,9.95,0,6.46,6.46,0,0,0,2.1-4.85A6.54,6.54,0,0,0,188.5,66.19Z"/><path class="cls-1" d="M197.75,64.44v5.83h6.44v1.46h-6.44v7.35h-1.66l0-16.11h8.35v1.47Z"/><path class="cls-1" d="M223.18,74.7l0,.79a4.71,4.71,0,0,1-.37,1.51,3.89,3.89,0,0,1-3.92,2.34,4.47,4.47,0,0,1-3.14-1.14,4.16,4.16,0,0,1-1.35-3H216a2.55,2.55,0,0,0,2.88,2.64,2.28,2.28,0,0,0,2.25-1.24,3.93,3.93,0,0,0,.35-1.24,12.28,12.28,0,0,0,.06-1.39V62.94h1.66Z"/><path class="cls-1" d="M242.14,76.89a9,9,0,0,1-12.24,0,7.72,7.72,0,0,1-2.63-5.85,8,8,0,0,1,2.55-6,9,9,0,0,1,12.31,0,8,8,0,0,1,0,11.83ZM241,66.13a6.93,6.93,0,0,0-5-2,6.86,6.86,0,0,0-5,2.06,6.68,6.68,0,0,0-2.05,4.91A6.39,6.39,0,0,0,231,75.86a7.18,7.18,0,0,0,9.95,0,6.46,6.46,0,0,0,2.1-4.85A6.54,6.54,0,0,0,241,66.13Z"/><path class="cls-1" d="M260,72.94a10.68,10.68,0,0,1-.13,1.71,6.37,6.37,0,0,1-.49,1.64,5.66,5.66,0,0,1-10,0,6.07,6.07,0,0,1-.48-1.64,9.91,9.91,0,0,1-.14-1.71v-10h1.66v10a9.67,9.67,0,0,0,.11,1.49,4.2,4.2,0,0,0,.45,1.42,3.93,3.93,0,0,0,6.82,0,4.2,4.2,0,0,0,.45-1.42,8.82,8.82,0,0,0,.12-1.49v-10h1.65Z"/><path class="cls-1" d="M274.33,71.5A5.32,5.32,0,0,1,270.85,73l4.67,6h-2.08l-5.61-7.28h1.79a6.75,6.75,0,0,0,1.76-.24A3.34,3.34,0,0,0,274.1,68,3.25,3.25,0,0,0,272.29,65a5.1,5.1,0,0,0-1.56-.51,11.45,11.45,0,0,0-1.66-.09H266.2l0,14.64h-1.66l0-16.11h4.2l1,0,1.06.08a6.81,6.81,0,0,1,2,.51,4.73,4.73,0,0,1,2.95,4.59A4.58,4.58,0,0,1,274.33,71.5Z"/><path class="cls-1" d="M291,79l-9.81-14.15h0l0,14.16h-1.66l0-16.11h2.23L291,76.22h0l0-13.37h1.65l0,16.11Z"/><path class="cls-1" d="M310.19,78.94l-2.4-5.42h-7.67L297.71,79H296l7-16.12h1.85L312,78.94ZM304,64.68l-3.23,7.4h6.41Z"/><path class="cls-1" d="M315.4,78.94l0-16.11H317l0,14.65h6.82v1.46Z"/><path class="cls-1" d="M326.92,78.92l0-16.11h1.66l0,16.11Z"/><path class="cls-1" d="M340.69,77.83a5,5,0,0,1-3.51,1.36,5.11,5.11,0,0,1-3.63-1.31,4.61,4.61,0,0,1-1.46-3.47h1.66q.15,3.33,3.44,3.32a3.27,3.27,0,0,0,2.34-.92,3,3,0,0,0,1-2.29,2.79,2.79,0,0,0-1.17-2.34,5.58,5.58,0,0,0-1.18-.65q-.53-.21-1.34-.44a14.55,14.55,0,0,1-1.66-.56,5.58,5.58,0,0,1-1.36-.76,3.54,3.54,0,0,1-1.27-2.92,4,4,0,0,1,1.36-3.12,4.71,4.71,0,0,1,3.28-1.22,4.54,4.54,0,0,1,3.24,1.24,4.14,4.14,0,0,1,1.34,3.13h-1.66A2.94,2.94,0,0,0,337.16,64a3,3,0,0,0-2.11.8,2.61,2.61,0,0,0-.87,2,2.32,2.32,0,0,0,1.33,2.13,7.28,7.28,0,0,0,1.28.51l1.32.38A6.32,6.32,0,0,1,341,71.45a4.23,4.23,0,0,1,1.14,3A4.42,4.42,0,0,1,340.69,77.83Z"/><path class="cls-1" d="M361.19,78.88l0-14.34h0L355,78.89h-1.41l-6.15-14.34h0l0,14.34h-1.66l0-16.11h2.54l6,13.71,6-13.73h2.55l0,16.11Z"/><path class="cls-1" d="M388.64,79.11l-3.77-3.59a8.06,8.06,0,0,1-2,2.54,4.73,4.73,0,0,1-3.05,1.06,5.15,5.15,0,0,1-3.64-1.42,4.59,4.59,0,0,1-1.56-3.49,4.35,4.35,0,0,1,1.12-3,7.69,7.69,0,0,1,2.69-1.83,8,8,0,0,1-1.3-1.5,3.45,3.45,0,0,1-.56-1.87,3.25,3.25,0,0,1,1.22-2.57,4.1,4.1,0,0,1,2.76-1,3.89,3.89,0,0,1,2.76,1.09,3.53,3.53,0,0,1,1.19,2.67,3.25,3.25,0,0,1-1,2.31,5.46,5.46,0,0,1-2.22,1.35l3.13,3,2.4-4.53h1.85l-3,5.68,4.18,4Zm-9-8.54a5.74,5.74,0,0,0-2.3,1.38,3.23,3.23,0,0,0-1,2.34,3.14,3.14,0,0,0,1,2.33,3.36,3.36,0,0,0,2.4,1,3.33,3.33,0,0,0,2.41-1,6.08,6.08,0,0,0,.83-1q.29-.46.66-1.17Zm2.52-6a2.38,2.38,0,0,0-1.61-.57,2.43,2.43,0,0,0-1.59.56,1.84,1.84,0,0,0-.71,1.47,2.5,2.5,0,0,0,.63,1.53,6.9,6.9,0,0,0,.61.65l.63.56q.61-.23,1-.41a4.31,4.31,0,0,0,.88-.52,2.13,2.13,0,0,0,.89-1.75A1.9,1.9,0,0,0,382.16,64.56Z"/><path class="cls-1" d="M416.35,74.59a8.18,8.18,0,0,1-7.6,4.52,8.52,8.52,0,0,1-6.1-2.4,8.2,8.2,0,0,1,0-11.84,8.9,8.9,0,0,1,12.63.45,5.75,5.75,0,0,1,1,1.53h-1.85a6.57,6.57,0,0,0-5.75-2.94,7,7,0,0,0-6.92,6.9,6.5,6.5,0,0,0,2.09,4.77A6.81,6.81,0,0,0,412,76.81a8.24,8.24,0,0,0,2.51-2.21Z"/><path class="cls-1" d="M434.46,76.65a9,9,0,0,1-12.24,0,7.72,7.72,0,0,1-2.63-5.85,8,8,0,0,1,2.55-6,9,9,0,0,1,12.31,0,8,8,0,0,1,0,11.83Zm-1.15-10.76a6.93,6.93,0,0,0-5-2,6.86,6.86,0,0,0-5,2.06,6.68,6.68,0,0,0-2.05,4.91,6.38,6.38,0,0,0,2.12,4.79,7.18,7.18,0,0,0,9.95,0,6.46,6.46,0,0,0,2.1-4.85A6.54,6.54,0,0,0,433.31,65.89Z"/><path class="cls-1" d="M456.51,78.76l0-14.34h0l-6.16,14.35h-1.41l-6.15-14.34h0l0,14.34H441l0-16.11h2.54l6,13.71,6-13.73h2.55l0,16.11Z"/><path class="cls-1" d="M478.36,78.73l0-14.34h0l-6.16,14.35h-1.41L464.58,64.4h0l0,14.34H462.9l0-16.11h2.54l6,13.71,6-13.73H480l0,16.11Z"/><path class="cls-1" d="M496,72.64a10.68,10.68,0,0,1-.13,1.71,6.37,6.37,0,0,1-.49,1.64,5.66,5.66,0,0,1-10,0,6.07,6.07,0,0,1-.48-1.64,9.91,9.91,0,0,1-.14-1.71v-10h1.66v10a9.67,9.67,0,0,0,.11,1.49,4.21,4.21,0,0,0,.45,1.42,3.93,3.93,0,0,0,6.82,0,4.2,4.2,0,0,0,.45-1.42,8.82,8.82,0,0,0,.12-1.49v-10h1.65Z"/><path class="cls-1" d="M512.17,78.69l-9.81-14.15h0l0,14.16h-1.66l0-16.11h2.23l9.24,13.36h0l0-13.37h1.65l0,16.11Z"/><path class="cls-1" d="M518.54,78.68l0-16.11h1.66l0,16.11Z"/><path class="cls-1" d="M540.43,74.44a8.18,8.18,0,0,1-7.6,4.51,8.52,8.52,0,0,1-6.1-2.4,8.2,8.2,0,0,1,0-11.84,8.9,8.9,0,0,1,12.63.45,5.74,5.74,0,0,1,1,1.53H538.5a6.57,6.57,0,0,0-5.75-2.94,7,7,0,0,0-6.92,6.9,6.5,6.5,0,0,0,2.09,4.77,6.81,6.81,0,0,0,8.14,1.22,8.24,8.24,0,0,0,2.51-2.21Z"/><path class="cls-1" d="M556.78,78.63l-2.4-5.42H546.7l-2.4,5.42h-1.72l7-16.12h1.85l7.11,16.1Zm-6.23-14.26-3.23,7.4h6.41Z"/><path class="cls-1" d="M563.68,64l0,14.64H562L562,64h-3.79V62.52h9.22V64Z"/><path class="cls-1" d="M570.65,78.62l0-16.11h1.66l0,16.11Z"/><path class="cls-1" d="M591.15,76.45a9,9,0,0,1-12.24,0,7.72,7.72,0,0,1-2.63-5.85,8,8,0,0,1,2.55-6,9,9,0,0,1,12.31,0,8,8,0,0,1,0,11.83ZM590,65.69a6.93,6.93,0,0,0-5-2,6.86,6.86,0,0,0-5,2.06,6.68,6.68,0,0,0-2.05,4.91,6.38,6.38,0,0,0,2.12,4.79,7.18,7.18,0,0,0,9.95,0,6.46,6.46,0,0,0,2.1-4.85A6.54,6.54,0,0,0,590,65.69Z"/><path class="cls-1" d="M609.22,78.57,599.4,64.42h0l0,14.16h-1.66l0-16.11h2.23l9.24,13.36h0l0-13.37h1.65l0,16.11Z"/><path class="cls-2" d="M57.76,79.26l-2.4-5.42H47.68l-2.4,5.42H43.56l7-16.12h1.85l7.11,16.1ZM51.53,65l-3.23,7.4h6.41Z"/><path class="cls-2" d="M78,75a8.18,8.18,0,0,1-7.6,4.51,8.52,8.52,0,0,1-6.1-2.4,8.2,8.2,0,0,1,0-11.84,8.9,8.9,0,0,1,12.63.45,5.75,5.75,0,0,1,1,1.53H76a6.56,6.56,0,0,0-5.75-2.94,7,7,0,0,0-6.92,6.9A6.5,6.5,0,0,0,65.44,76a6.81,6.81,0,0,0,8.14,1.22A8.24,8.24,0,0,0,76.1,75Z"/><path class="cls-2" d="M94.3,79.21l-2.4-5.42H84.23l-2.4,5.42H80.1l7-16.12H89l7.11,16.1ZM88.07,64.95l-3.23,7.4h6.41Z"/><path class="cls-2" d="M109.53,77.86a8.6,8.6,0,0,1-2.59,1,12.69,12.69,0,0,1-2.79.31H99.33l0-16.11h4.82a12.18,12.18,0,0,1,2.79.32,8.58,8.58,0,0,1,2.59,1,7.91,7.91,0,0,1,0,13.45Zm-.73-12.08a6.67,6.67,0,0,0-2.6-1,12.52,12.52,0,0,0-1.4-.17q-.61,0-1.44,0H101l0,13.19h2.73q.83,0,1.43,0a10.22,10.22,0,0,0,1.35-.18A6.81,6.81,0,0,0,109,76.43,5.87,5.87,0,0,0,111,74.07a6.91,6.91,0,0,0,.65-3A6.06,6.06,0,0,0,108.8,65.78Z"/><path class="cls-2" d="M117.18,79.18l0-16.11h9v1.47h-7.38v5.78H126v1.47h-7.14v5.94h7.38v1.46Z"/><path class="cls-2" d="M146.07,79.15l0-14.34h0l-6.16,14.35h-1.41l-6.15-14.34h0l0,14.34h-1.66l0-16.11h2.54l6,13.71,6-13.73h2.55l0,16.11Z"/><path class="cls-2" d="M158.17,73.75v5.38h-1.66V73.76L150.77,63h1.83l4.72,9,4.83-9H164Z"/><path class="cls-2" d="M188.65,77a9,9,0,0,1-12.24,0,7.72,7.72,0,0,1-2.63-5.85,8,8,0,0,1,2.55-6,9,9,0,0,1,12.31,0,8,8,0,0,1,0,11.83ZM187.5,66.19a6.93,6.93,0,0,0-5-2,6.86,6.86,0,0,0-5,2.06,6.68,6.68,0,0,0-2.05,4.91,6.38,6.38,0,0,0,2.12,4.79,7.18,7.18,0,0,0,9.95,0,6.46,6.46,0,0,0,2.1-4.85A6.54,6.54,0,0,0,187.5,66.19Z"/><path class="cls-2" d="M196.75,64.44v5.83h6.44v1.46h-6.44v7.35h-1.66l0-16.11h8.35v1.47Z"/><path class="cls-2" d="M222.18,74.7l0,.79a4.71,4.71,0,0,1-.37,1.51,3.89,3.89,0,0,1-3.92,2.34,4.47,4.47,0,0,1-3.14-1.14,4.16,4.16,0,0,1-1.35-3H215a2.55,2.55,0,0,0,2.88,2.64,2.28,2.28,0,0,0,2.25-1.24,3.93,3.93,0,0,0,.35-1.24,12.28,12.28,0,0,0,.06-1.39V62.94h1.66Z"/><path class="cls-2" d="M241.14,76.89a9,9,0,0,1-12.24,0,7.72,7.72,0,0,1-2.63-5.85,8,8,0,0,1,2.55-6,9,9,0,0,1,12.31,0,8,8,0,0,1,0,11.83ZM240,66.13a6.93,6.93,0,0,0-5-2,6.86,6.86,0,0,0-5,2.06,6.68,6.68,0,0,0-2.05,4.91A6.39,6.39,0,0,0,230,75.86a7.18,7.18,0,0,0,9.95,0,6.46,6.46,0,0,0,2.1-4.85A6.54,6.54,0,0,0,240,66.13Z"/><path class="cls-2" d="M259,72.94a10.68,10.68,0,0,1-.13,1.71,6.37,6.37,0,0,1-.49,1.64,5.66,5.66,0,0,1-10,0,6.07,6.07,0,0,1-.48-1.64,9.91,9.91,0,0,1-.14-1.71v-10h1.66v10a9.67,9.67,0,0,0,.11,1.49,4.2,4.2,0,0,0,.45,1.42,3.93,3.93,0,0,0,6.82,0,4.2,4.2,0,0,0,.45-1.42,8.82,8.82,0,0,0,.12-1.49v-10h1.65Z"/><path class="cls-2" d="M273.33,71.5A5.32,5.32,0,0,1,269.85,73l4.67,6h-2.08l-5.61-7.28h1.79a6.75,6.75,0,0,0,1.76-.24A3.34,3.34,0,0,0,273.1,68,3.25,3.25,0,0,0,271.29,65a5.1,5.1,0,0,0-1.56-.51,11.45,11.45,0,0,0-1.66-.09H265.2l0,14.64h-1.66l0-16.11h4.2l1,0,1.06.08a6.81,6.81,0,0,1,2,.51,4.73,4.73,0,0,1,2.95,4.59A4.58,4.58,0,0,1,273.33,71.5Z"/><path class="cls-2" d="M290,79l-9.81-14.15h0l0,14.16h-1.66l0-16.11h2.23L290,76.22h0l0-13.37h1.65l0,16.11Z"/><path class="cls-2" d="M309.19,78.94l-2.4-5.42h-7.67L296.71,79H295l7-16.12h1.85L311,78.94ZM303,64.68l-3.23,7.4h6.41Z"/><path class="cls-2" d="M314.4,78.94l0-16.11H316l0,14.65h6.82v1.46Z"/><path class="cls-2" d="M325.92,78.92l0-16.11h1.66l0,16.11Z"/><path class="cls-2" d="M339.69,77.83a5,5,0,0,1-3.51,1.36,5.11,5.11,0,0,1-3.63-1.31,4.61,4.61,0,0,1-1.46-3.47h1.66q.15,3.33,3.44,3.32a3.27,3.27,0,0,0,2.34-.92,3,3,0,0,0,1-2.29,2.79,2.79,0,0,0-1.17-2.34,5.58,5.58,0,0,0-1.18-.65q-.53-.21-1.34-.44a14.55,14.55,0,0,1-1.66-.56,5.58,5.58,0,0,1-1.36-.76,3.54,3.54,0,0,1-1.27-2.92,4,4,0,0,1,1.36-3.12,4.71,4.71,0,0,1,3.28-1.22,4.54,4.54,0,0,1,3.24,1.24,4.14,4.14,0,0,1,1.34,3.13h-1.66A2.94,2.94,0,0,0,336.16,64a3,3,0,0,0-2.11.8,2.61,2.61,0,0,0-.87,2,2.32,2.32,0,0,0,1.33,2.13,7.28,7.28,0,0,0,1.28.51l1.32.38A6.32,6.32,0,0,1,340,71.45a4.23,4.23,0,0,1,1.14,3A4.42,4.42,0,0,1,339.69,77.83Z"/><path class="cls-2" d="M360.19,78.88l0-14.34h0L354,78.89h-1.41l-6.15-14.34h0l0,14.34h-1.66l0-16.11h2.54l6,13.71,6-13.73h2.55l0,16.11Z"/><path class="cls-2" d="M387.64,79.11l-3.77-3.59a8.06,8.06,0,0,1-2,2.54,4.73,4.73,0,0,1-3.05,1.06,5.15,5.15,0,0,1-3.64-1.42,4.59,4.59,0,0,1-1.56-3.49,4.35,4.35,0,0,1,1.12-3,7.69,7.69,0,0,1,2.69-1.83,8,8,0,0,1-1.3-1.5,3.45,3.45,0,0,1-.56-1.87,3.25,3.25,0,0,1,1.22-2.57,4.1,4.1,0,0,1,2.76-1,3.89,3.89,0,0,1,2.76,1.09,3.53,3.53,0,0,1,1.19,2.67,3.25,3.25,0,0,1-1,2.31,5.46,5.46,0,0,1-2.22,1.35l3.13,3,2.4-4.53h1.85l-3,5.68,4.18,4Zm-9-8.54a5.74,5.74,0,0,0-2.3,1.38,3.23,3.23,0,0,0-1,2.34,3.14,3.14,0,0,0,1,2.33,3.36,3.36,0,0,0,2.4,1,3.33,3.33,0,0,0,2.41-1,6.08,6.08,0,0,0,.83-1q.29-.46.66-1.17Zm2.52-6a2.38,2.38,0,0,0-1.61-.57,2.43,2.43,0,0,0-1.59.56,1.84,1.84,0,0,0-.71,1.47,2.5,2.5,0,0,0,.63,1.53,6.9,6.9,0,0,0,.61.65l.63.56q.61-.23,1-.41a4.31,4.31,0,0,0,.88-.52,2.13,2.13,0,0,0,.89-1.75A1.9,1.9,0,0,0,381.16,64.56Z"/><path class="cls-2" d="M415.35,74.59a8.18,8.18,0,0,1-7.6,4.52,8.52,8.52,0,0,1-6.1-2.4,8.2,8.2,0,0,1,0-11.84,8.9,8.9,0,0,1,12.63.45,5.75,5.75,0,0,1,1,1.53h-1.85a6.57,6.57,0,0,0-5.75-2.94,7,7,0,0,0-6.92,6.9,6.5,6.5,0,0,0,2.09,4.77A6.81,6.81,0,0,0,411,76.81a8.24,8.24,0,0,0,2.51-2.21Z"/><path class="cls-2" d="M433.46,76.65a9,9,0,0,1-12.24,0,7.72,7.72,0,0,1-2.63-5.85,8,8,0,0,1,2.55-6,9,9,0,0,1,12.31,0,8,8,0,0,1,0,11.83Zm-1.15-10.76a6.93,6.93,0,0,0-5-2,6.86,6.86,0,0,0-5,2.06,6.68,6.68,0,0,0-2.05,4.91,6.38,6.38,0,0,0,2.12,4.79,7.18,7.18,0,0,0,9.95,0,6.46,6.46,0,0,0,2.1-4.85A6.54,6.54,0,0,0,432.31,65.89Z"/><path class="cls-2" d="M455.51,78.76l0-14.34h0l-6.16,14.35h-1.41l-6.15-14.34h0l0,14.34H440l0-16.11h2.54l6,13.71,6-13.73h2.55l0,16.11Z"/><path class="cls-2" d="M477.36,78.73l0-14.34h0l-6.16,14.35h-1.41L463.58,64.4h0l0,14.34H461.9l0-16.11h2.54l6,13.71,6-13.73H479l0,16.11Z"/><path class="cls-2" d="M495,72.64a10.68,10.68,0,0,1-.13,1.71,6.37,6.37,0,0,1-.49,1.64,5.66,5.66,0,0,1-10,0,6.07,6.07,0,0,1-.48-1.64,9.91,9.91,0,0,1-.14-1.71v-10h1.66v10a9.67,9.67,0,0,0,.11,1.49,4.21,4.21,0,0,0,.45,1.42,3.93,3.93,0,0,0,6.82,0,4.2,4.2,0,0,0,.45-1.42,8.82,8.82,0,0,0,.12-1.49v-10h1.65Z"/><path class="cls-2" d="M511.17,78.69l-9.81-14.15h0l0,14.16h-1.66l0-16.11h2.23l9.24,13.36h0l0-13.37h1.65l0,16.11Z"/><path class="cls-2" d="M517.54,78.68l0-16.11h1.66l0,16.11Z"/><path class="cls-2" d="M539.43,74.44a8.18,8.18,0,0,1-7.6,4.51,8.52,8.52,0,0,1-6.1-2.4,8.2,8.2,0,0,1,0-11.84,8.9,8.9,0,0,1,12.63.45,5.74,5.74,0,0,1,1,1.53H537.5a6.57,6.57,0,0,0-5.75-2.94,7,7,0,0,0-6.92,6.9,6.5,6.5,0,0,0,2.09,4.77,6.81,6.81,0,0,0,8.14,1.22,8.24,8.24,0,0,0,2.51-2.21Z"/><path class="cls-2" d="M555.78,78.63l-2.4-5.42H545.7l-2.4,5.42h-1.72l7-16.12h1.85l7.11,16.1Zm-6.23-14.26-3.23,7.4h6.41Z"/><path class="cls-2" d="M562.68,64l0,14.64H561L561,64h-3.79V62.52h9.22V64Z"/><path class="cls-2" d="M569.65,78.62l0-16.11h1.66l0,16.11Z"/><path class="cls-2" d="M590.15,76.45a9,9,0,0,1-12.24,0,7.72,7.72,0,0,1-2.63-5.85,8,8,0,0,1,2.55-6,9,9,0,0,1,12.31,0,8,8,0,0,1,0,11.83ZM589,65.69a6.93,6.93,0,0,0-5-2,6.86,6.86,0,0,0-5,2.06,6.68,6.68,0,0,0-2.05,4.91,6.38,6.38,0,0,0,2.12,4.79,7.18,7.18,0,0,0,9.95,0,6.46,6.46,0,0,0,2.1-4.85A6.54,6.54,0,0,0,589,65.69Z"/><path class="cls-2" d="M608.22,78.57,598.4,64.42h0l0,14.16h-1.66l0-16.11h2.23l9.24,13.36h0l0-13.37h1.65l0,16.11Z"/><path class="cls-3" d="M125.76,52.49c16.65-.34,33.29-.48,49.94-.73l49.94-.42c16.65-.18,33.29-.15,49.94-.21L325.51,51l49.94.13c16.65.07,33.29,0,49.94.21l49.94.42c16.65.25,33.29.4,49.94.74-16.65.34-33.29.49-49.94.74l-49.94.42c-16.65.18-33.29.14-49.94.21L325.51,54l-49.94-.14c-16.65-.07-33.29,0-49.94-.21l-49.94-.42C159,53,142.4,52.83,125.76,52.49Z"/></svg>