<svg xmlns="http://www.w3.org/2000/svg" viewBox="0 0 251.03 142.07"><defs><style>.cls-1{fill:#d9251c;}.cls-2{fill:#fff;}.cls-3{fill:#faec1d;}</style></defs><title>co</title><g id="Layer_2" data-name="Layer 2"><g id="Layer_1-2" data-name="Layer 1"><path class="cls-1" d="M101.92,134.22V112.54c-1.25.49-2.2.8-3.1,1.21-12.07,5.49-24.54,9.42-38,9.45a55.5,55.5,0,0,1-10.79-.78c-8.57-1.69-16.57.12-24.48,3.15-6.8,2.6-13.66,5.06-20.48,7.62a9.13,9.13,0,0,0-2.06.87c-.68.46-.79.92-1.59.92,0-30.69,0-62.14,0-92.83a2.48,2.48,0,0,1,1.9-2.81c8.3-2.93,16.42-6.51,24.87-8.87A51.68,51.68,0,0,1,44.42,29a79.36,79.36,0,0,0,37.93-7.32c6.68-3.1,13.15-6.65,19.59-10.23a55.36,55.36,0,0,1,18.67-6.66c8.25-1.25,16.54-2.21,24.82-3.24,3.33-.41,3.39-.29,3.39,3,0,8.09.08,16.19,0,24.28,0,2.25.53,3,2.92,3,12.86.07,24.67-3.84,36-9.37,7.06-3.44,13.66-7.88,20.87-10.92a83.83,83.83,0,0,1,18.05-4.85c6.86-1.2,13.87-1.51,20.81-2.32,2.14-.25,2.16.9,2.16,2.43q0,20.19,0,40.39,0,27.28,0,54.57c0,.94,0,1.88,0,2.93a11.1,11.1,0,0,1-1.71,0c-13.13-2.44-25.26.33-37,6.28a227.08,227.08,0,0,1-25.13,10.83A71.19,71.19,0,0,1,148.17,125c-6.38-1.17-12.49.17-18.44,2.24-4.77,1.66-9.43,3.64-14.11,5.55a11.62,11.62,0,0,0-2.11,1.45s-8.83,7.18-11.79,6.38C101.66,138.45,101.92,134.22,101.92,134.22Z"/><path class="cls-2" d="M102.15,142.07a3.1,3.1,0,0,1-.81-.1l-1-.28,0-1.06c-.06-2.09.17-6,.2-6.46V114.61c-.38.15-.74.29-1.08.45-14.32,6.51-26.57,9.55-38.55,9.58a57.91,57.91,0,0,1-11.07-.81c-7.15-1.41-14.45-.46-23.69,3.08-4,1.53-8.1,3-12,4.49Q9.82,133,5.6,134.53l-.44.15a8.23,8.23,0,0,0-1.22.48l-.1.08a2.71,2.71,0,0,0-.35.3,2.73,2.73,0,0,1-2,.87H0V119.05c0-25.58,0-51.5,0-76.9A3.87,3.87,0,0,1,2.85,38c2.87-1,5.77-2.12,8.57-3.2,5.31-2,10.81-4.14,16.4-5.7a52.17,52.17,0,0,1,16.68-1.48,78.34,78.34,0,0,0,37.26-7.19c6.69-3.1,13.3-6.73,19.49-10.19A56.42,56.42,0,0,1,120.4,3.43c6.74-1,13.6-1.87,20.25-2.68l4.61-.57c1.8-.22,3.11-.39,4.06.45s.94,2.09.94,4q0,3.34,0,6.67c0,5.78,0,11.75-.05,17.63,0,1.13.15,1.34.17,1.36s.21.2,1.32.21c11.1.05,22.35-2.88,35.37-9.23,2.92-1.42,5.82-3.05,8.62-4.63A123.36,123.36,0,0,1,208,10.31a85.4,85.4,0,0,1,18.36-4.94c4.47-.78,9-1.2,13.47-1.6,2.44-.22,5-.45,7.42-.73a3.41,3.41,0,0,1,2.8.65,4,4,0,0,1,1,3.19q0,15.86,0,31.73v67.57h-1.43l-.66,0a5.78,5.78,0,0,1-1.31-.05C235.82,104,224,106,211.47,112.3a228.86,228.86,0,0,1-25.29,10.9,72.7,72.7,0,0,1-38.27,3.18c-6.63-1.22-12.95.53-17.71,2.19-3.81,1.32-7.62,2.89-11.31,4.4l-2.73,1.12a5.16,5.16,0,0,0-1.11.75c-.24.19-.47.38-.72.55C112.36,137,105.81,142.07,102.15,142.07Zm1.2-31.62v23.86s-.16,2.66-.2,4.77c2-.64,5.89-3.06,9.46-6,.28-.2.47-.35.66-.51a7.41,7.41,0,0,1,1.81-1.16l2.72-1.11c3.72-1.53,7.57-3.11,11.45-4.46,5.1-1.77,11.88-3.64,19.17-2.3a69.83,69.83,0,0,0,36.78-3.05,226,226,0,0,0,25-10.76c13.11-6.62,25.53-8.72,38-6.41h0V38.61q0-15.87,0-31.73a7.47,7.47,0,0,0,0-1,2.44,2.44,0,0,0-.52,0c-2.5.29-5,.52-7.49.74-4.37.39-8.89.8-13.24,1.57a82.78,82.78,0,0,0-17.74,4.76,121.26,121.26,0,0,0-12,6.18c-2.84,1.6-5.78,3.25-8.77,4.71-13.43,6.55-25.07,9.55-36.64,9.52a4.6,4.6,0,0,1-3.35-1.06,4.55,4.55,0,0,1-1-3.4c.09-5.85.07-11.81.05-17.58q0-3.34,0-6.68c0-.59,0-1.36-.05-1.78h0c-.44,0-1.25.1-1.73.16L141,3.58c-6.62.81-13.47,1.65-20.16,2.67a53.61,53.61,0,0,0-18.19,6.49C96.4,16.21,89.74,19.87,83,23a81.24,81.24,0,0,1-38.61,7.45,49.4,49.4,0,0,0-15.76,1.37c-5.46,1.52-10.89,3.6-16.14,5.62-2.82,1.08-5.74,2.2-8.64,3.22-.84.3-.95.46-.94,1.47,0,25.4,0,51.32,0,76.9v13.45A13.6,13.6,0,0,1,4.23,132l.36-.12q4.22-1.59,8.46-3.13c3.95-1.45,8-3,12-4.48,9.77-3.74,17.57-4.74,25.27-3.22a53.89,53.89,0,0,0,10.51.75c11.56,0,23.43-3,37.37-9.33.65-.29,1.29-.53,2-.81l1.15-.44Z"/><polygon class="cls-3" points="177.09 42.98 170.87 63.97 148.91 64.6 167.03 76.95 160.81 97.94 178.22 84.58 196.34 96.93 188.99 76.32 206.41 62.97 184.44 63.59 177.09 42.98"/><polygon class="cls-3" points="206.41 62.97 177.91 72.95 184.44 63.59 206.41 62.97"/><polygon class="cls-3" points="177.09 42.98 177.89 72.95 170.87 63.97 177.09 42.98"/><polygon class="cls-3" points="148.91 64.6 177.89 72.97 167.03 76.95 148.91 64.6"/><polygon class="cls-3" points="160.81 97.94 177.91 72.95 178.22 84.58 160.81 97.94"/><polygon class="cls-3" points="196.34 96.93 177.91 72.95 188.99 76.32 196.34 96.93"/><path class="cls-3" d="M51.36,66.59l9.07-12.65s6.2-.74,6.73-2.91c1,.63,4.07,3.3,4.07,3.3L66.4,60.61,83.23,74.07s5.42-11-6.34-23.33c-2.5-2.37-5.43-3.82-9.92-5.64,0,0,13.62-2.41,22.48,12.52,1.54,3.7,4.59,10.12.17,21.64L94.17,83l-4.6,6.47L85,85.73A23.64,23.64,0,0,1,69.3,92c-8.85-.5-13.16-4.81-14.43-5.41l-6.73,8.2-4.61-4.22L53.4,78.87a28.49,28.49,0,0,0,8.47,4.52C66.82,85,73.41,85,78.72,80.75L61.91,67l-3.84,5.16Z"/></g></g></svg>