<svg id="Layer_1" data-name="Layer 1" xmlns="http://www.w3.org/2000/svg" xmlns:xlink="http://www.w3.org/1999/xlink" viewBox="0 0 52.22 53.86"><defs><style>.cls-1{fill:url(#linear-gradient);}.cls-2{opacity:0.3;}.cls-3,.cls-46{opacity:0;}.cls-3{fill:url(#radial-gradient);}.cls-4{opacity:0.02;fill:url(#radial-gradient-2);}.cls-5{opacity:0.05;fill:url(#radial-gradient-3);}.cls-6{opacity:0.07;fill:url(#radial-gradient-4);}.cls-7{opacity:0.1;fill:url(#radial-gradient-5);}.cls-8{opacity:0.12;fill:url(#radial-gradient-6);}.cls-9{opacity:0.15;fill:url(#radial-gradient-7);}.cls-10{opacity:0.17;fill:url(#radial-gradient-8);}.cls-11{opacity:0.2;fill:url(#radial-gradient-9);}.cls-12{opacity:0.22;fill:url(#radial-gradient-10);}.cls-13{opacity:0.24;fill:url(#radial-gradient-11);}.cls-14{opacity:0.27;fill:url(#radial-gradient-12);}.cls-15{opacity:0.29;fill:url(#radial-gradient-13);}.cls-16{opacity:0.32;fill:url(#radial-gradient-14);}.cls-17{opacity:0.34;fill:url(#radial-gradient-15);}.cls-18{opacity:0.37;fill:url(#radial-gradient-16);}.cls-19{opacity:0.39;fill:url(#radial-gradient-17);}.cls-20{opacity:0.41;fill:url(#radial-gradient-18);}.cls-21{opacity:0.44;fill:url(#radial-gradient-19);}.cls-22{opacity:0.46;fill:url(#radial-gradient-20);}.cls-23{opacity:0.49;fill:url(#radial-gradient-21);}.cls-24{opacity:0.51;fill:url(#radial-gradient-22);}.cls-25{opacity:0.54;fill:url(#radial-gradient-23);}.cls-26{opacity:0.56;fill:url(#radial-gradient-24);}.cls-27{opacity:0.59;fill:url(#radial-gradient-25);}.cls-28{opacity:0.61;fill:url(#radial-gradient-26);}.cls-29{opacity:0.63;fill:url(#radial-gradient-27);}.cls-30{opacity:0.66;fill:url(#radial-gradient-28);}.cls-31{opacity:0.68;fill:url(#radial-gradient-29);}.cls-32{opacity:0.71;fill:url(#radial-gradient-30);}.cls-33{opacity:0.73;fill:url(#radial-gradient-31);}.cls-34{opacity:0.76;fill:url(#radial-gradient-32);}.cls-35{opacity:0.78;fill:url(#radial-gradient-33);}.cls-36{opacity:0.8;fill:url(#radial-gradient-34);}.cls-37{opacity:0.83;fill:url(#radial-gradient-35);}.cls-38{opacity:0.85;fill:url(#radial-gradient-36);}.cls-39{opacity:0.88;fill:url(#radial-gradient-37);}.cls-40{opacity:0.9;fill:url(#radial-gradient-38);}.cls-41{opacity:0.93;fill:url(#radial-gradient-39);}.cls-42{opacity:0.95;fill:url(#radial-gradient-40);}.cls-43{opacity:0.98;fill:url(#radial-gradient-41);}.cls-44{fill:url(#radial-gradient-42);}.cls-45{opacity:0.7;}.cls-47{opacity:0.01;}.cls-48{opacity:0.03;}.cls-49{opacity:0.04;}.cls-50{opacity:0.06;}.cls-51{opacity:0.07;}.cls-52{opacity:0.08;}.cls-53{opacity:0.1;}.cls-54{opacity:0.11;}.cls-55{opacity:0.13;}.cls-56{opacity:0.14;}.cls-57{opacity:0.15;}.cls-58{opacity:0.17;}.cls-59{opacity:0.18;}.cls-60{opacity:0.2;}.cls-61{opacity:0.21;}.cls-62{opacity:0.23;}.cls-63{opacity:0.24;}.cls-64{opacity:0.25;}.cls-65{opacity:0.27;}.cls-66{opacity:0.28;}.cls-67{opacity:0.3;}.cls-68{opacity:0.31;}.cls-69{opacity:0.32;}.cls-70{opacity:0.34;}.cls-71{opacity:0.35;}.cls-72{opacity:0.37;}.cls-73{opacity:0.38;}.cls-74{opacity:0.39;}.cls-75{opacity:0.41;}.cls-76{opacity:0.42;}.cls-77{opacity:0.44;}.cls-78{opacity:0.45;}.cls-79{opacity:0.46;}.cls-80{opacity:0.48;}.cls-81{opacity:0.49;}.cls-82{opacity:0.51;}.cls-83{opacity:0.52;}.cls-84{opacity:0.54;}.cls-85{opacity:0.55;}.cls-86{opacity:0.56;}.cls-87{opacity:0.58;}.cls-88{opacity:0.59;}.cls-89{opacity:0.61;}.cls-90{opacity:0.62;}.cls-91{opacity:0.63;}.cls-92{opacity:0.65;}.cls-93{opacity:0.66;}.cls-94{opacity:0.68;}.cls-95{opacity:0.69;}.cls-96{opacity:0.7;}.cls-97{opacity:0.72;}.cls-98{opacity:0.73;}.cls-99{opacity:0.75;}.cls-100{opacity:0.76;}.cls-101{opacity:0.77;}.cls-102{opacity:0.79;}.cls-103{opacity:0.8;}.cls-104{opacity:0.82;}.cls-105{opacity:0.83;}.cls-106{opacity:0.85;}.cls-107{opacity:0.86;}.cls-108{opacity:0.87;}.cls-109{opacity:0.89;}.cls-110{opacity:0.9;}.cls-111{opacity:0.92;}.cls-112{opacity:0.93;}.cls-113{opacity:0.94;}.cls-114{opacity:0.96;}.cls-115{opacity:0.97;}.cls-116{opacity:0.99;}.cls-117{stroke:#fff;stroke-miterlimit:10;stroke-width:0.74px;fill:url(#linear-gradient-2);}.cls-118{fill:url(#linear-gradient-3);}.cls-119{fill:url(#linear-gradient-4);}</style><linearGradient id="linear-gradient" y1="26.11" x2="52.22" y2="26.11" gradientUnits="userSpaceOnUse"><stop offset="0" stop-color="#5e0d63"/><stop offset="1" stop-color="#7e1416"/></linearGradient><radialGradient id="radial-gradient" cx="97.56" cy="119.52" r="3.68" gradientTransform="translate(-667.06 8.62) scale(7.11 0.37)" gradientUnits="userSpaceOnUse"><stop offset="0"/><stop offset="1"/></radialGradient><radialGradient id="radial-gradient-2" cx="97.09" cy="123.79" r="3.69" gradientTransform="translate(-644.39 8.26) scale(6.91 0.36)" xlink:href="#radial-gradient"/><radialGradient id="radial-gradient-3" cx="96.6" cy="128.31" r="3.71" gradientTransform="translate(-621.72 7.9) scale(6.71 0.35)" xlink:href="#radial-gradient"/><radialGradient id="radial-gradient-4" cx="96.08" cy="133.08" r="3.72" gradientTransform="translate(-599.04 7.54) scale(6.51 0.34)" xlink:href="#radial-gradient"/><radialGradient id="radial-gradient-5" cx="95.53" cy="138.14" r="3.73" gradientTransform="translate(-576.37 7.18) scale(6.31 0.33)" xlink:href="#radial-gradient"/><radialGradient id="radial-gradient-6" cx="94.94" cy="143.5" r="3.75" gradientTransform="translate(-553.7 6.82) scale(6.11 0.32)" xlink:href="#radial-gradient"/><radialGradient id="radial-gradient-7" cx="94.31" cy="149.21" r="3.77" gradientTransform="translate(-531.03 6.45) scale(5.91 0.31)" xlink:href="#radial-gradient"/><radialGradient id="radial-gradient-8" cx="93.64" cy="155.28" r="3.79" gradientTransform="translate(-508.35 6.09) scale(5.71 0.3)" xlink:href="#radial-gradient"/><radialGradient id="radial-gradient-9" cx="92.92" cy="161.77" r="3.81" gradientTransform="translate(-485.68 5.73) scale(5.51 0.29)" xlink:href="#radial-gradient"/><radialGradient id="radial-gradient-10" cx="92.15" cy="168.71" r="3.83" gradientTransform="translate(-463.01 5.37) scale(5.31 0.28)" xlink:href="#radial-gradient"/><radialGradient id="radial-gradient-11" cx="91.31" cy="176.15" r="3.85" gradientTransform="translate(-440.34 5.01) scale(5.11 0.27)" xlink:href="#radial-gradient"/><radialGradient id="radial-gradient-12" cx="90.41" cy="184.15" r="3.87" gradientTransform="translate(-417.67 4.65) scale(4.91 0.26)" xlink:href="#radial-gradient"/><radialGradient id="radial-gradient-13" cx="89.43" cy="192.77" r="3.9" gradientTransform="translate(-394.99 4.29) scale(4.71 0.25)" xlink:href="#radial-gradient"/><radialGradient id="radial-gradient-14" cx="88.36" cy="202.09" r="3.93" gradientTransform="translate(-372.32 3.93) scale(4.51 0.24)" xlink:href="#radial-gradient"/><radialGradient id="radial-gradient-15" cx="87.19" cy="212.19" r="3.96" gradientTransform="translate(-349.65 3.57) scale(4.31 0.23)" xlink:href="#radial-gradient"/><radialGradient id="radial-gradient-16" cx="85.91" cy="223.19" r="3.99" gradientTransform="translate(-326.98 3.21) scale(4.11 0.22)" xlink:href="#radial-gradient"/><radialGradient id="radial-gradient-17" cx="84.5" cy="235.21" r="4.03" gradientTransform="translate(-304.3 2.84) scale(3.91 0.21)" xlink:href="#radial-gradient"/><radialGradient id="radial-gradient-18" cx="82.94" cy="248.38" r="4.07" gradientTransform="translate(-281.63 2.48) scale(3.71 0.2)" xlink:href="#radial-gradient"/><radialGradient id="radial-gradient-19" cx="81.2" cy="262.9" r="4.12" gradientTransform="translate(-258.96 2.12) scale(3.51 0.19)" xlink:href="#radial-gradient"/><radialGradient id="radial-gradient-20" cx="79.25" cy="278.97" r="4.17" gradientTransform="translate(-236.29 1.76) scale(3.31 0.18)" xlink:href="#radial-gradient"/><radialGradient id="radial-gradient-21" cx="77.05" cy="296.86" r="4.23" gradientTransform="translate(-213.62 1.4) scale(3.11 0.17)" xlink:href="#radial-gradient"/><radialGradient id="radial-gradient-22" cx="74.55" cy="316.89" r="4.29" gradientTransform="translate(-190.94 1.04) scale(2.91 0.16)" xlink:href="#radial-gradient"/><radialGradient id="radial-gradient-23" cx="71.67" cy="339.48" r="4.36" gradientTransform="translate(-168.27 0.68) scale(2.71 0.15)" xlink:href="#radial-gradient"/><radialGradient id="radial-gradient-24" cx="68.35" cy="365.15" r="4.45" gradientTransform="translate(-145.6 0.32) scale(2.51 0.14)" xlink:href="#radial-gradient"/><radialGradient id="radial-gradient-25" cx="64.45" cy="394.58" r="4.55" gradientTransform="translate(-122.93 -0.04) scale(2.31 0.13)" xlink:href="#radial-gradient"/><radialGradient id="radial-gradient-26" cx="59.81" cy="428.65" r="4.66" gradientTransform="translate(-100.25 -0.41) scale(2.11 0.12)" xlink:href="#radial-gradient"/><radialGradient id="radial-gradient-27" cx="54.2" cy="468.55" r="4.8" gradientTransform="translate(-77.58 -0.77) scale(1.91 0.11)" xlink:href="#radial-gradient"/><radialGradient id="radial-gradient-28" cx="47.28" cy="515.93" r="4.97" gradientTransform="translate(-54.91 -1.13) scale(1.71 0.1)" xlink:href="#radial-gradient"/><radialGradient id="radial-gradient-29" cx="38.54" cy="573.11" r="5.19" gradientTransform="translate(-32.24 -1.49) scale(1.51 0.09)" xlink:href="#radial-gradient"/><radialGradient id="radial-gradient-30" cx="27.15" cy="643.48" r="5.46" gradientTransform="translate(-9.57 -1.85) scale(1.31 0.08)" xlink:href="#radial-gradient"/><radialGradient id="radial-gradient-31" cx="11.67" cy="732.18" r="5.82" gradientTransform="translate(13.11 -2.21) scale(1.11 0.07)" xlink:href="#radial-gradient"/><radialGradient id="radial-gradient-32" cx="-10.57" cy="847.47" r="6.33" gradientTransform="translate(35.78 -2.57) scale(0.91 0.06)" xlink:href="#radial-gradient"/><radialGradient id="radial-gradient-33" cx="-45.23" cy="1003.4" r="7.11" gradientTransform="translate(58.45 -2.93) scale(0.71 0.06)" xlink:href="#radial-gradient"/><radialGradient id="radial-gradient-34" cx="-106.76" cy="1226.06" r="8.46" gradientTransform="translate(81.12 -3.29) scale(0.52 0.05)" xlink:href="#radial-gradient"/><radialGradient id="radial-gradient-35" cx="-246.15" cy="1569.94" r="11.46" gradientTransform="translate(103.79 -3.66) scale(0.32 0.04)" xlink:href="#radial-gradient"/><radialGradient id="radial-gradient-36" cx="-865.9" cy="2171.09" r="24.9" gradientTransform="translate(126.47 -4.02) scale(0.12 0.03)" xlink:href="#radial-gradient"/><radialGradient id="radial-gradient-37" cx="1468.14" cy="3490.68" r="30.15" gradientTransform="matrix(-0.08, 0, 0, 0.02, 149.14, -4.38)" xlink:href="#radial-gradient"/><radialGradient id="radial-gradient-38" cx="513.94" cy="8729.19" r="20.25" gradientTransform="matrix(-0.28, 0, 0, 0.01, 171.81, -4.74)" xlink:href="#radial-gradient"/><radialGradient id="radial-gradient-39" cx="348.46" cy="-18116.15" r="31.17" gradientTransform="translate(194.48 -5.1) rotate(180) scale(0.48 0)" xlink:href="#radial-gradient"/><radialGradient id="radial-gradient-40" cx="279.76" cy="-4487.6" r="5.95" gradientTransform="translate(217.16 -5.46) rotate(180) scale(0.68 0.01)" xlink:href="#radial-gradient"/><radialGradient id="radial-gradient-41" cx="242.15" cy="-2574.72" r="2.33" gradientTransform="translate(239.83 -5.82) rotate(180) scale(0.88 0.02)" xlink:href="#radial-gradient"/><radialGradient id="radial-gradient-42" cx="218.42" cy="-1811.91" r="0.83" gradientTransform="translate(262.5 -6.18) rotate(180) scale(1.08 0.03)" xlink:href="#radial-gradient"/><linearGradient id="linear-gradient-2" x1="11.71" y1="11.71" x2="40.74" y2="40.74" gradientUnits="userSpaceOnUse"><stop offset="0" stop-color="#c3c4c3"/><stop offset="0.22" stop-color="#dadada"/><stop offset="0.48" stop-color="#eeefee"/><stop offset="0.75" stop-color="#fbfbfb"/><stop offset="1" stop-color="#fff"/></linearGradient><linearGradient id="linear-gradient-3" x1="21.36" y1="26.93" x2="39.99" y2="26.93" xlink:href="#linear-gradient"/><linearGradient id="linear-gradient-4" x1="14.66" y1="26.93" x2="32.34" y2="26.93" xlink:href="#linear-gradient"/></defs><title>icon_dangnhap</title><circle class="cls-1" cx="26.11" cy="26.11" r="26.11"/><g class="cls-2"><ellipse class="cls-3" cx="26.11" cy="52.34" rx="22.37" ry="1.52"/><ellipse class="cls-4" cx="26.11" cy="52.34" rx="21.85" ry="1.48"/><ellipse class="cls-5" cx="26.11" cy="52.34" rx="21.32" ry="1.44"/><ellipse class="cls-6" cx="26.11" cy="52.34" rx="20.79" ry="1.41"/><ellipse class="cls-7" cx="26.11" cy="52.34" rx="20.27" ry="1.37"/><ellipse class="cls-8" cx="26.11" cy="52.34" rx="19.74" ry="1.33"/><ellipse class="cls-9" cx="26.11" cy="52.34" rx="19.21" ry="1.3"/><ellipse class="cls-10" cx="26.11" cy="52.34" rx="18.68" ry="1.26"/><ellipse class="cls-11" cx="26.11" cy="52.34" rx="18.16" ry="1.23"/><ellipse class="cls-12" cx="26.11" cy="52.34" rx="17.63" ry="1.19"/><ellipse class="cls-13" cx="26.11" cy="52.34" rx="17.1" ry="1.15"/><ellipse class="cls-14" cx="26.11" cy="52.34" rx="16.58" ry="1.12"/><ellipse class="cls-15" cx="26.11" cy="52.34" rx="16.05" ry="1.08"/><ellipse class="cls-16" cx="26.11" cy="52.34" rx="15.52" ry="1.04"/><ellipse class="cls-17" cx="26.11" cy="52.34" rx="15" ry="1.01"/><ellipse class="cls-18" cx="26.11" cy="52.34" rx="14.47" ry="0.97"/><ellipse class="cls-19" cx="26.11" cy="52.34" rx="13.94" ry="0.94"/><ellipse class="cls-20" cx="26.11" cy="52.34" rx="13.41" ry="0.9"/><ellipse class="cls-21" cx="26.11" cy="52.34" rx="12.89" ry="0.86"/><ellipse class="cls-22" cx="26.11" cy="52.34" rx="12.36" ry="0.83"/><ellipse class="cls-23" cx="26.11" cy="52.34" rx="11.83" ry="0.79"/><ellipse class="cls-24" cx="26.11" cy="52.34" rx="11.31" ry="0.75"/><ellipse class="cls-25" cx="26.11" cy="52.34" rx="10.78" ry="0.72"/><ellipse class="cls-26" cx="26.11" cy="52.34" rx="10.25" ry="0.68"/><ellipse class="cls-27" cx="26.11" cy="52.34" rx="9.73" ry="0.65"/><ellipse class="cls-28" cx="26.11" cy="52.34" rx="9.2" ry="0.61"/><ellipse class="cls-29" cx="26.11" cy="52.34" rx="8.67" ry="0.57"/><ellipse class="cls-30" cx="26.11" cy="52.34" rx="8.15" ry="0.54"/><ellipse class="cls-31" cx="26.11" cy="52.34" rx="7.62" ry="0.5"/><ellipse class="cls-32" cx="26.11" cy="52.34" rx="7.09" ry="0.46"/><ellipse class="cls-33" cx="26.11" cy="52.34" rx="6.56" ry="0.43"/><ellipse class="cls-34" cx="26.11" cy="52.34" rx="6.04" ry="0.39"/><ellipse class="cls-35" cx="26.11" cy="52.34" rx="5.51" ry="0.36"/><ellipse class="cls-36" cx="26.11" cy="52.34" rx="4.98" ry="0.32"/><ellipse class="cls-37" cx="26.11" cy="52.34" rx="4.46" ry="0.28"/><ellipse class="cls-38" cx="26.11" cy="52.34" rx="3.93" ry="0.25"/><ellipse class="cls-39" cx="26.11" cy="52.34" rx="3.4" ry="0.21"/><ellipse class="cls-40" cx="26.11" cy="52.34" rx="2.88" ry="0.18"/><ellipse class="cls-41" cx="26.11" cy="52.34" rx="2.35" ry="0.14"/><ellipse class="cls-42" cx="26.11" cy="52.34" rx="1.82" ry="0.1"/><ellipse class="cls-43" cx="26.11" cy="52.34" rx="1.29" ry="0.07"/><ellipse class="cls-44" cx="26.11" cy="52.34" rx="0.77" ry="0.03"/></g><g class="cls-45"><path class="cls-46" d="M27.71,48.56a21.4,21.4,0,1,1,21.4-21.4A21.43,21.43,0,0,1,27.71,48.56Z"/><path class="cls-47" d="M27.68,48.54A21.39,21.39,0,1,1,49.08,27.15,21.42,21.42,0,0,1,27.68,48.54Z"/><path class="cls-48" d="M27.65,48.51A21.38,21.38,0,1,1,49,27.13,21.4,21.4,0,0,1,27.65,48.51Z"/><path class="cls-49" d="M27.63,48.49A21.37,21.37,0,1,1,49,27.12,21.39,21.39,0,0,1,27.63,48.49Z"/><path class="cls-50" d="M27.6,48.46A21.36,21.36,0,1,1,49,27.11,21.38,21.38,0,0,1,27.6,48.46Z"/><path class="cls-51" d="M27.57,48.44A21.34,21.34,0,1,1,48.91,27.09,21.37,21.37,0,0,1,27.57,48.44Z"/><path class="cls-52" d="M27.54,48.41A21.33,21.33,0,1,1,48.87,27.08,21.36,21.36,0,0,1,27.54,48.41Z"/><path class="cls-53" d="M27.51,48.38A21.32,21.32,0,1,1,48.83,27.07,21.34,21.34,0,0,1,27.51,48.38Z"/><path class="cls-54" d="M27.48,48.36A21.31,21.31,0,1,1,48.79,27.05,21.33,21.33,0,0,1,27.48,48.36Z"/><path class="cls-55" d="M27.45,48.33A21.29,21.29,0,1,1,48.75,27,21.32,21.32,0,0,1,27.45,48.33Z"/><path class="cls-56" d="M27.42,48.31A21.28,21.28,0,1,1,48.7,27,21.31,21.31,0,0,1,27.42,48.31Z"/><path class="cls-57" d="M27.39,48.28A21.27,21.27,0,1,1,48.66,27,21.29,21.29,0,0,1,27.39,48.28Z"/><path class="cls-58" d="M27.36,48.26A21.26,21.26,0,1,1,48.62,27,21.28,21.28,0,0,1,27.36,48.26Z"/><path class="cls-59" d="M27.33,48.23A21.25,21.25,0,1,1,48.58,27,21.27,21.27,0,0,1,27.33,48.23Z"/><path class="cls-60" d="M27.31,48.2A21.23,21.23,0,1,1,48.54,27,21.26,21.26,0,0,1,27.31,48.2Z"/><path class="cls-61" d="M27.28,48.18A21.22,21.22,0,1,1,48.5,27,21.25,21.25,0,0,1,27.28,48.18Z"/><path class="cls-62" d="M27.25,48.15A21.21,21.21,0,1,1,48.46,26.94,21.23,21.23,0,0,1,27.25,48.15Z"/><path class="cls-63" d="M27.22,48.13a21.2,21.2,0,1,1,21.2-21.2A21.22,21.22,0,0,1,27.22,48.13Z"/><path class="cls-64" d="M27.19,48.1A21.19,21.19,0,1,1,48.37,26.92,21.21,21.21,0,0,1,27.19,48.1Z"/><path class="cls-65" d="M27.16,48.08A21.17,21.17,0,1,1,48.33,26.9,21.2,21.2,0,0,1,27.16,48.08Z"/><path class="cls-66" d="M27.13,48.05A21.16,21.16,0,1,1,48.29,26.89,21.19,21.19,0,0,1,27.13,48.05Z"/><path class="cls-67" d="M27.1,48A21.15,21.15,0,1,1,48.25,26.88,21.17,21.17,0,0,1,27.1,48Z"/><path class="cls-68" d="M27.07,48A21.14,21.14,0,1,1,48.21,26.86,21.16,21.16,0,0,1,27.07,48Z"/><path class="cls-69" d="M27,48A21.12,21.12,0,1,1,48.17,26.85,21.15,21.15,0,0,1,27,48Z"/><path class="cls-70" d="M27,47.95A21.11,21.11,0,1,1,48.13,26.84,21.14,21.14,0,0,1,27,47.95Z"/><path class="cls-71" d="M27,47.92a21.1,21.1,0,1,1,21.1-21.1A21.12,21.12,0,0,1,27,47.92Z"/><path class="cls-72" d="M27,47.9A21.09,21.09,0,1,1,48,26.81,21.11,21.11,0,0,1,27,47.9Z"/><path class="cls-73" d="M26.93,47.87A21.08,21.08,0,1,1,48,26.8,21.1,21.1,0,0,1,26.93,47.87Z"/><path class="cls-74" d="M26.9,47.85A21.06,21.06,0,1,1,48,26.78,21.09,21.09,0,0,1,26.9,47.85Z"/><path class="cls-75" d="M26.87,47.82A21.05,21.05,0,1,1,47.92,26.77,21.08,21.08,0,0,1,26.87,47.82Z"/><path class="cls-76" d="M26.84,47.79a21,21,0,1,1,21-21A21.06,21.06,0,0,1,26.84,47.79Z"/><path class="cls-77" d="M26.81,47.77a21,21,0,1,1,21-21A21.05,21.05,0,0,1,26.81,47.77Z"/><path class="cls-78" d="M26.78,47.74a21,21,0,1,1,21-21A21,21,0,0,1,26.78,47.74Z"/><path class="cls-79" d="M26.75,47.72a21,21,0,1,1,21-21A21,21,0,0,1,26.75,47.72Z"/><path class="cls-80" d="M26.72,47.69a21,21,0,1,1,21-21A21,21,0,0,1,26.72,47.69Z"/><path class="cls-81" d="M26.7,47.67a21,21,0,1,1,21-21A21,21,0,0,1,26.7,47.67Z"/><path class="cls-82" d="M26.67,47.64a21,21,0,1,1,21-21A21,21,0,0,1,26.67,47.64Z"/><path class="cls-83" d="M26.64,47.61a21,21,0,1,1,21-21A21,21,0,0,1,26.64,47.61Z"/><path class="cls-84" d="M26.61,47.59A20.94,20.94,0,1,1,47.55,26.65,21,21,0,0,1,26.61,47.59Z"/><path class="cls-85" d="M26.58,47.56A20.93,20.93,0,1,1,47.51,26.63,21,21,0,0,1,26.58,47.56Z"/><path class="cls-86" d="M26.55,47.54A20.92,20.92,0,1,1,47.47,26.62,20.94,20.94,0,0,1,26.55,47.54Z"/><path class="cls-87" d="M26.52,47.51a20.9,20.9,0,1,1,20.9-20.9A20.93,20.93,0,0,1,26.52,47.51Z"/><path class="cls-88" d="M26.49,47.49A20.89,20.89,0,1,1,47.38,26.59,20.92,20.92,0,0,1,26.49,47.49Z"/><path class="cls-89" d="M26.46,47.46A20.88,20.88,0,1,1,47.34,26.58,20.9,20.9,0,0,1,26.46,47.46Z"/><path class="cls-90" d="M26.43,47.43A20.87,20.87,0,1,1,47.3,26.57,20.89,20.89,0,0,1,26.43,47.43Z"/><path class="cls-91" d="M26.4,47.41A20.86,20.86,0,1,1,47.26,26.55,20.88,20.88,0,0,1,26.4,47.41Z"/><path class="cls-92" d="M26.38,47.38A20.84,20.84,0,1,1,47.22,26.54,20.87,20.87,0,0,1,26.38,47.38Z"/><path class="cls-93" d="M26.35,47.36A20.83,20.83,0,1,1,47.18,26.53,20.86,20.86,0,0,1,26.35,47.36Z"/><path class="cls-94" d="M26.32,47.33A20.82,20.82,0,1,1,47.14,26.51,20.84,20.84,0,0,1,26.32,47.33Z"/><path class="cls-95" d="M26.29,47.31A20.81,20.81,0,1,1,47.1,26.5,20.83,20.83,0,0,1,26.29,47.31Z"/><path class="cls-96" d="M26.26,47.28A20.79,20.79,0,1,1,47.05,26.49,20.82,20.82,0,0,1,26.26,47.28Z"/><path class="cls-97" d="M26.23,47.25A20.78,20.78,0,1,1,47,26.47,20.81,20.81,0,0,1,26.23,47.25Z"/><path class="cls-98" d="M26.2,47.23A20.77,20.77,0,1,1,47,26.46,20.79,20.79,0,0,1,26.2,47.23Z"/><path class="cls-99" d="M26.17,47.2A20.76,20.76,0,1,1,46.93,26.45,20.78,20.78,0,0,1,26.17,47.2Z"/><path class="cls-100" d="M26.14,47.18A20.75,20.75,0,1,1,46.89,26.43,20.77,20.77,0,0,1,26.14,47.18Z"/><path class="cls-101" d="M26.11,47.15A20.73,20.73,0,1,1,46.85,26.42,20.76,20.76,0,0,1,26.11,47.15Z"/><path class="cls-102" d="M26.08,47.13A20.72,20.72,0,1,1,46.81,26.4,20.75,20.75,0,0,1,26.08,47.13Z"/><path class="cls-103" d="M26.06,47.1A20.71,20.71,0,1,1,46.77,26.39,20.73,20.73,0,0,1,26.06,47.1Z"/><path class="cls-104" d="M26,47.07a20.7,20.7,0,1,1,20.7-20.7A20.72,20.72,0,0,1,26,47.07Z"/><path class="cls-105" d="M26,47A20.69,20.69,0,1,1,46.68,26.36,20.71,20.71,0,0,1,26,47Z"/><path class="cls-106" d="M26,47A20.67,20.67,0,1,1,46.64,26.35,20.7,20.7,0,0,1,26,47Z"/><path class="cls-107" d="M25.94,47A20.66,20.66,0,1,1,46.6,26.34,20.68,20.68,0,0,1,25.94,47Z"/><path class="cls-108" d="M25.91,47A20.65,20.65,0,1,1,46.56,26.32,20.67,20.67,0,0,1,25.91,47Z"/><path class="cls-109" d="M25.88,46.95A20.64,20.64,0,1,1,46.52,26.31,20.66,20.66,0,0,1,25.88,46.95Z"/><path class="cls-110" d="M25.85,46.92A20.62,20.62,0,1,1,46.48,26.3,20.65,20.65,0,0,1,25.85,46.92Z"/><path class="cls-111" d="M25.82,46.9A20.61,20.61,0,1,1,46.44,26.28,20.64,20.64,0,0,1,25.82,46.9Z"/><path class="cls-112" d="M25.79,46.87a20.6,20.6,0,1,1,20.6-20.6A20.62,20.62,0,0,1,25.79,46.87Z"/><path class="cls-113" d="M25.77,46.84A20.59,20.59,0,1,1,46.35,26.26,20.61,20.61,0,0,1,25.77,46.84Z"/><path class="cls-114" d="M25.74,46.82A20.58,20.58,0,1,1,46.31,26.24,20.6,20.6,0,0,1,25.74,46.82Z"/><path class="cls-115" d="M25.71,46.79A20.56,20.56,0,1,1,46.27,26.23,20.59,20.59,0,0,1,25.71,46.79Z"/><path class="cls-116" d="M25.68,46.77A20.55,20.55,0,1,1,46.23,26.22,20.57,20.57,0,0,1,25.68,46.77Z"/><path d="M25.65,46.74A20.54,20.54,0,1,1,46.19,26.2,20.56,20.56,0,0,1,25.65,46.74Z"/></g><path class="cls-117" d="M26.11,46.65A20.54,20.54,0,1,1,46.65,26.11,20.56,20.56,0,0,1,26.11,46.65Z"/><path class="cls-118" d="M34.07,29.21a1.51,1.51,0,1,0,2.13,2.13L39.55,28l.1-.11s0,0,0-.05l0-.05.09-.14.06-.13,0-.13,0-.14,0-.15a1.42,1.42,0,0,0,0-.15,1.44,1.44,0,0,0,0-.15l-.05-.27,0-.14-.06-.12-.08-.13L39.66,26l-.12-.13L36.2,22.52a1.49,1.49,0,0,0-1.07-.44h0a1.51,1.51,0,0,0-1.06,2.57l.78.78h-12a1.51,1.51,0,1,0,0,3h12ZM39.59,27h0Z"/><path class="cls-119" d="M24.18,17.41a9.51,9.51,0,0,1,7.9,4.21,1.51,1.51,0,0,1-.41,2.09,1.51,1.51,0,0,1-2.09-.41,6.5,6.5,0,1,0,0,7.26,1.51,1.51,0,1,1,2.5,1.68,9.52,9.52,0,1,1-7.89-14.84Z"/></svg>