<svg id="Layer_1" data-name="Layer 1" xmlns="http://www.w3.org/2000/svg" xmlns:xlink="http://www.w3.org/1999/xlink" viewBox="0 0 52 53.63"><defs><style>.cls-1{fill:url(#linear-gradient);}.cls-2{opacity:0.3;}.cls-3,.cls-46{opacity:0;}.cls-3{fill:url(#radial-gradient);}.cls-4{opacity:0.02;fill:url(#radial-gradient-2);}.cls-5{opacity:0.05;fill:url(#radial-gradient-3);}.cls-6{opacity:0.07;fill:url(#radial-gradient-4);}.cls-7{opacity:0.1;fill:url(#radial-gradient-5);}.cls-8{opacity:0.12;fill:url(#radial-gradient-6);}.cls-9{opacity:0.15;fill:url(#radial-gradient-7);}.cls-10{opacity:0.17;fill:url(#radial-gradient-8);}.cls-11{opacity:0.2;fill:url(#radial-gradient-9);}.cls-12{opacity:0.22;fill:url(#radial-gradient-10);}.cls-13{opacity:0.24;fill:url(#radial-gradient-11);}.cls-14{opacity:0.27;fill:url(#radial-gradient-12);}.cls-15{opacity:0.29;fill:url(#radial-gradient-13);}.cls-16{opacity:0.32;fill:url(#radial-gradient-14);}.cls-17{opacity:0.34;fill:url(#radial-gradient-15);}.cls-18{opacity:0.37;fill:url(#radial-gradient-16);}.cls-19{opacity:0.39;fill:url(#radial-gradient-17);}.cls-20{opacity:0.41;fill:url(#radial-gradient-18);}.cls-21{opacity:0.44;fill:url(#radial-gradient-19);}.cls-22{opacity:0.46;fill:url(#radial-gradient-20);}.cls-23{opacity:0.49;fill:url(#radial-gradient-21);}.cls-24{opacity:0.51;fill:url(#radial-gradient-22);}.cls-25{opacity:0.54;fill:url(#radial-gradient-23);}.cls-26{opacity:0.56;fill:url(#radial-gradient-24);}.cls-27{opacity:0.59;fill:url(#radial-gradient-25);}.cls-28{opacity:0.61;fill:url(#radial-gradient-26);}.cls-29{opacity:0.63;fill:url(#radial-gradient-27);}.cls-30{opacity:0.66;fill:url(#radial-gradient-28);}.cls-31{opacity:0.68;fill:url(#radial-gradient-29);}.cls-32{opacity:0.71;fill:url(#radial-gradient-30);}.cls-33{opacity:0.73;fill:url(#radial-gradient-31);}.cls-34{opacity:0.76;fill:url(#radial-gradient-32);}.cls-35{opacity:0.78;fill:url(#radial-gradient-33);}.cls-36{opacity:0.8;fill:url(#radial-gradient-34);}.cls-37{opacity:0.83;fill:url(#radial-gradient-35);}.cls-38{opacity:0.85;fill:url(#radial-gradient-36);}.cls-39{opacity:0.88;fill:url(#radial-gradient-37);}.cls-40{opacity:0.9;fill:url(#radial-gradient-38);}.cls-41{opacity:0.93;fill:url(#radial-gradient-39);}.cls-42{opacity:0.95;fill:url(#radial-gradient-40);}.cls-43{opacity:0.98;fill:url(#radial-gradient-41);}.cls-44{fill:url(#radial-gradient-42);}.cls-45{opacity:0.7;}.cls-47{opacity:0.01;}.cls-48{opacity:0.03;}.cls-49{opacity:0.04;}.cls-50{opacity:0.06;}.cls-51{opacity:0.07;}.cls-52{opacity:0.08;}.cls-53{opacity:0.1;}.cls-54{opacity:0.11;}.cls-55{opacity:0.13;}.cls-56{opacity:0.14;}.cls-57{opacity:0.15;}.cls-58{opacity:0.17;}.cls-59{opacity:0.18;}.cls-60{opacity:0.2;}.cls-61{opacity:0.21;}.cls-62{opacity:0.23;}.cls-63{opacity:0.24;}.cls-64{opacity:0.25;}.cls-65{opacity:0.27;}.cls-66{opacity:0.28;}.cls-67{opacity:0.3;}.cls-68{opacity:0.31;}.cls-69{opacity:0.32;}.cls-70{opacity:0.34;}.cls-71{opacity:0.35;}.cls-72{opacity:0.37;}.cls-73{opacity:0.38;}.cls-74{opacity:0.39;}.cls-75{opacity:0.41;}.cls-76{opacity:0.42;}.cls-77{opacity:0.44;}.cls-78{opacity:0.45;}.cls-79{opacity:0.46;}.cls-80{opacity:0.48;}.cls-81{opacity:0.49;}.cls-82{opacity:0.51;}.cls-83{opacity:0.52;}.cls-84{opacity:0.54;}.cls-85{opacity:0.55;}.cls-86{opacity:0.56;}.cls-87{opacity:0.58;}.cls-88{opacity:0.59;}.cls-89{opacity:0.61;}.cls-90{opacity:0.62;}.cls-91{opacity:0.63;}.cls-92{opacity:0.65;}.cls-93{opacity:0.66;}.cls-94{opacity:0.68;}.cls-95{opacity:0.69;}.cls-96{opacity:0.7;}.cls-97{opacity:0.72;}.cls-98{opacity:0.73;}.cls-99{opacity:0.75;}.cls-100{opacity:0.76;}.cls-101{opacity:0.77;}.cls-102{opacity:0.79;}.cls-103{opacity:0.8;}.cls-104{opacity:0.82;}.cls-105{opacity:0.83;}.cls-106{opacity:0.85;}.cls-107{opacity:0.86;}.cls-108{opacity:0.87;}.cls-109{opacity:0.89;}.cls-110{opacity:0.9;}.cls-111{opacity:0.92;}.cls-112{opacity:0.93;}.cls-113{opacity:0.94;}.cls-114{opacity:0.96;}.cls-115{opacity:0.97;}.cls-116{opacity:0.99;}.cls-117{stroke:#fff;stroke-miterlimit:10;stroke-width:0.74px;fill:url(#linear-gradient-2);}.cls-118{fill:url(#linear-gradient-3);}.cls-119{fill:url(#linear-gradient-4);}.cls-120{fill:url(#linear-gradient-5);}.cls-121{fill:url(#linear-gradient-6);}.cls-122{fill:url(#linear-gradient-7);}</style><linearGradient id="linear-gradient" y1="26" x2="52" y2="26" gradientUnits="userSpaceOnUse"><stop offset="0" stop-color="#3c274d"/><stop offset="1" stop-color="#8658ab"/></linearGradient><radialGradient id="radial-gradient" cx="-1415.92" cy="27.9" r="3.66" gradientTransform="translate(10086.69 41.92) scale(7.11 0.37)" gradientUnits="userSpaceOnUse"><stop offset="0"/><stop offset="1"/></radialGradient><radialGradient id="radial-gradient-2" cx="-1409.22" cy="28.24" r="3.68" gradientTransform="translate(9757.62 42.07) scale(6.91 0.36)" xlink:href="#radial-gradient"/><radialGradient id="radial-gradient-3" cx="-1402.11" cy="28.61" r="3.69" gradientTransform="translate(9428.55 42.21) scale(6.71 0.35)" xlink:href="#radial-gradient"/><radialGradient id="radial-gradient-4" cx="-1394.57" cy="28.99" r="3.7" gradientTransform="translate(9099.48 42.36) scale(6.51 0.34)" xlink:href="#radial-gradient"/><radialGradient id="radial-gradient-5" cx="-1386.55" cy="29.4" r="3.72" gradientTransform="translate(8770.41 42.51) scale(6.31 0.33)" xlink:href="#radial-gradient"/><radialGradient id="radial-gradient-6" cx="-1378" cy="29.83" r="3.73" gradientTransform="translate(8441.34 42.66) scale(6.11 0.32)" xlink:href="#radial-gradient"/><radialGradient id="radial-gradient-7" cx="-1368.88" cy="30.29" r="3.75" gradientTransform="translate(8112.27 42.81) scale(5.91 0.31)" xlink:href="#radial-gradient"/><radialGradient id="radial-gradient-8" cx="-1359.12" cy="30.77" r="3.77" gradientTransform="translate(7783.2 42.96) scale(5.71 0.3)" xlink:href="#radial-gradient"/><radialGradient id="radial-gradient-9" cx="-1348.66" cy="31.29" r="3.79" gradientTransform="translate(7454.13 43.11) scale(5.51 0.29)" xlink:href="#radial-gradient"/><radialGradient id="radial-gradient-10" cx="-1337.4" cy="31.85" r="3.81" gradientTransform="translate(7125.06 43.25) scale(5.31 0.28)" xlink:href="#radial-gradient"/><radialGradient id="radial-gradient-11" cx="-1325.27" cy="32.45" r="3.83" gradientTransform="translate(6795.99 43.4) scale(5.11 0.27)" xlink:href="#radial-gradient"/><radialGradient id="radial-gradient-12" cx="-1312.14" cy="33.09" r="3.86" gradientTransform="translate(6466.92 43.55) scale(4.91 0.26)" xlink:href="#radial-gradient"/><radialGradient id="radial-gradient-13" cx="-1297.91" cy="33.78" r="3.88" gradientTransform="translate(6137.85 43.7) scale(4.71 0.25)" xlink:href="#radial-gradient"/><radialGradient id="radial-gradient-14" cx="-1282.41" cy="34.53" r="3.91" gradientTransform="translate(5808.78 43.85) scale(4.51 0.24)" xlink:href="#radial-gradient"/><radialGradient id="radial-gradient-15" cx="-1265.48" cy="35.34" r="3.94" gradientTransform="translate(5479.71 44) scale(4.31 0.23)" xlink:href="#radial-gradient"/><radialGradient id="radial-gradient-16" cx="-1246.9" cy="36.23" r="3.98" gradientTransform="translate(5150.65 44.15) scale(4.11 0.22)" xlink:href="#radial-gradient"/><radialGradient id="radial-gradient-17" cx="-1226.43" cy="37.19" r="4.01" gradientTransform="translate(4821.58 44.3) scale(3.91 0.21)" xlink:href="#radial-gradient"/><radialGradient id="radial-gradient-18" cx="-1203.75" cy="38.25" r="4.05" gradientTransform="translate(4492.51 44.44) scale(3.71 0.2)" xlink:href="#radial-gradient"/><radialGradient id="radial-gradient-19" cx="-1178.49" cy="39.42" r="4.1" gradientTransform="translate(4163.44 44.59) scale(3.51 0.19)" xlink:href="#radial-gradient"/><radialGradient id="radial-gradient-20" cx="-1150.18" cy="40.71" r="4.15" gradientTransform="translate(3834.37 44.74) scale(3.31 0.18)" xlink:href="#radial-gradient"/><radialGradient id="radial-gradient-21" cx="-1118.24" cy="42.14" r="4.21" gradientTransform="translate(3505.3 44.89) scale(3.11 0.17)" xlink:href="#radial-gradient"/><radialGradient id="radial-gradient-22" cx="-1081.92" cy="43.75" r="4.27" gradientTransform="translate(3176.23 45.04) scale(2.91 0.16)" xlink:href="#radial-gradient"/><radialGradient id="radial-gradient-23" cx="-1040.25" cy="45.57" r="4.35" gradientTransform="translate(2847.16 45.19) scale(2.71 0.15)" xlink:href="#radial-gradient"/><radialGradient id="radial-gradient-24" cx="-991.96" cy="47.63" r="4.43" gradientTransform="translate(2518.09 45.34) scale(2.51 0.14)" xlink:href="#radial-gradient"/><radialGradient id="radial-gradient-25" cx="-935.32" cy="49.99" r="4.53" gradientTransform="translate(2189.02 45.49) scale(2.31 0.13)" xlink:href="#radial-gradient"/><radialGradient id="radial-gradient-26" cx="-867.98" cy="52.73" r="4.64" gradientTransform="translate(1859.95 45.63) scale(2.11 0.12)" xlink:href="#radial-gradient"/><radialGradient id="radial-gradient-27" cx="-786.58" cy="55.94" r="4.78" gradientTransform="translate(1530.88 45.78) scale(1.91 0.11)" xlink:href="#radial-gradient"/><radialGradient id="radial-gradient-28" cx="-686.21" cy="59.74" r="4.95" gradientTransform="translate(1201.81 45.93) scale(1.71 0.1)" xlink:href="#radial-gradient"/><radialGradient id="radial-gradient-29" cx="-559.35" cy="64.33" r="5.16" gradientTransform="translate(872.74 46.08) scale(1.51 0.09)" xlink:href="#radial-gradient"/><radialGradient id="radial-gradient-30" cx="-393.94" cy="69.99" r="5.44" gradientTransform="translate(543.67 46.23) scale(1.31 0.08)" xlink:href="#radial-gradient"/><radialGradient id="radial-gradient-31" cx="-169.24" cy="77.11" r="5.8" gradientTransform="translate(214.6 46.38) scale(1.11 0.07)" xlink:href="#radial-gradient"/><radialGradient id="radial-gradient-32" cx="153.56" cy="86.37" r="6.31" gradientTransform="translate(-114.46 46.53) scale(0.91 0.06)" xlink:href="#radial-gradient"/><radialGradient id="radial-gradient-33" cx="656.69" cy="98.9" r="7.08" gradientTransform="translate(-443.53 46.67) scale(0.71 0.06)" xlink:href="#radial-gradient"/><radialGradient id="radial-gradient-34" cx="1549.78" cy="116.78" r="8.43" gradientTransform="translate(-772.6 46.82) scale(0.52 0.05)" xlink:href="#radial-gradient"/><radialGradient id="radial-gradient-35" cx="3573.11" cy="144.4" r="11.41" gradientTransform="translate(-1101.67 46.97) scale(0.32 0.04)" xlink:href="#radial-gradient"/><radialGradient id="radial-gradient-36" cx="12568.96" cy="192.69" r="24.8" gradientTransform="translate(-1430.74 47.12) scale(0.12 0.03)" xlink:href="#radial-gradient"/><radialGradient id="radial-gradient-37" cx="-21310.4" cy="298.68" r="30.02" gradientTransform="matrix(-0.08, 0, 0, 0.02, -1759.81, 47.27)" xlink:href="#radial-gradient"/><radialGradient id="radial-gradient-38" cx="-7459.9" cy="719.44" r="20.17" gradientTransform="matrix(-0.28, 0, 0, 0.01, -2088.88, 47.42)" xlink:href="#radial-gradient"/><radialGradient id="radial-gradient-39" cx="-5057.84" cy="-1436.81" r="31.04" gradientTransform="translate(-2417.95 47.57) rotate(180) scale(0.48 0)" xlink:href="#radial-gradient"/><radialGradient id="radial-gradient-40" cx="-4060.65" cy="-342.15" r="5.92" gradientTransform="translate(-2747.02 47.72) rotate(180) scale(0.68 0.01)" xlink:href="#radial-gradient"/><radialGradient id="radial-gradient-41" cx="-3514.72" cy="-188.5" r="2.32" gradientTransform="translate(-3076.09 47.86) rotate(180) scale(0.88 0.02)" xlink:href="#radial-gradient"/><radialGradient id="radial-gradient-42" cx="-3170.25" cy="-127.23" r="0.83" gradientTransform="translate(-3405.16 48.01) rotate(180) scale(1.08 0.03)" xlink:href="#radial-gradient"/><linearGradient id="linear-gradient-2" x1="11.66" y1="11.66" x2="40.57" y2="40.57" gradientUnits="userSpaceOnUse"><stop offset="0" stop-color="#c3c4c3"/><stop offset="0.22" stop-color="#dadada"/><stop offset="0.48" stop-color="#eeefee"/><stop offset="0.75" stop-color="#fbfbfb"/><stop offset="1" stop-color="#fff"/></linearGradient><linearGradient id="linear-gradient-3" x1="21.92" y1="18.41" x2="26.65" y2="18.41" xlink:href="#linear-gradient"/><linearGradient id="linear-gradient-4" x1="27.74" y1="18.41" x2="32.47" y2="18.41" xlink:href="#linear-gradient"/><linearGradient id="linear-gradient-5" x1="13.67" y1="25.98" x2="37.47" y2="25.98" xlink:href="#linear-gradient"/><linearGradient id="linear-gradient-6" x1="24.71" y1="31.03" x2="28.38" y2="31.03" xlink:href="#linear-gradient"/><linearGradient id="linear-gradient-7" x1="20.16" y1="32.2" x2="30.98" y2="32.2" xlink:href="#linear-gradient"/></defs><title>lichtuan_bc</title><circle class="cls-1" cx="26" cy="26" r="26"/><g class="cls-2"><ellipse class="cls-3" cx="26" cy="52.12" rx="22.28" ry="1.51"/><ellipse class="cls-4" cx="26" cy="52.12" rx="21.75" ry="1.47"/><ellipse class="cls-5" cx="26" cy="52.12" rx="21.23" ry="1.44"/><ellipse class="cls-6" cx="26" cy="52.12" rx="20.71" ry="1.4"/><ellipse class="cls-7" cx="26" cy="52.12" rx="20.18" ry="1.36"/><ellipse class="cls-8" cx="26" cy="52.12" rx="19.66" ry="1.33"/><ellipse class="cls-9" cx="26" cy="52.12" rx="19.13" ry="1.29"/><ellipse class="cls-10" cx="26" cy="52.12" rx="18.61" ry="1.26"/><ellipse class="cls-11" cx="26" cy="52.12" rx="18.08" ry="1.22"/><ellipse class="cls-12" cx="26" cy="52.12" rx="17.56" ry="1.18"/><ellipse class="cls-13" cx="26" cy="52.12" rx="17.03" ry="1.15"/><ellipse class="cls-14" cx="26" cy="52.12" rx="16.51" ry="1.11"/><ellipse class="cls-15" cx="26" cy="52.12" rx="15.98" ry="1.08"/><ellipse class="cls-16" cx="26" cy="52.12" rx="15.46" ry="1.04"/><ellipse class="cls-17" cx="26" cy="52.12" rx="14.93" ry="1"/><ellipse class="cls-18" cx="26" cy="52.12" rx="14.41" ry="0.97"/><ellipse class="cls-19" cx="26" cy="52.12" rx="13.88" ry="0.93"/><ellipse class="cls-20" cx="26" cy="52.12" rx="13.36" ry="0.9"/><ellipse class="cls-21" cx="26" cy="52.12" rx="12.83" ry="0.86"/><ellipse class="cls-22" cx="26" cy="52.12" rx="12.31" ry="0.82"/><ellipse class="cls-23" cx="26" cy="52.12" rx="11.78" ry="0.79"/><ellipse class="cls-24" cx="26" cy="52.12" rx="11.26" ry="0.75"/><ellipse class="cls-25" cx="26" cy="52.12" rx="10.73" ry="0.72"/><ellipse class="cls-26" cx="26" cy="52.12" rx="10.21" ry="0.68"/><ellipse class="cls-27" cx="26" cy="52.12" rx="9.69" ry="0.64"/><ellipse class="cls-28" cx="26" cy="52.12" rx="9.16" ry="0.61"/><ellipse class="cls-29" cx="26" cy="52.12" rx="8.64" ry="0.57"/><ellipse class="cls-30" cx="26" cy="52.12" rx="8.11" ry="0.54"/><ellipse class="cls-31" cx="26" cy="52.12" rx="7.59" ry="0.5"/><ellipse class="cls-32" cx="26" cy="52.12" rx="7.06" ry="0.46"/><ellipse class="cls-33" cx="26" cy="52.12" rx="6.54" ry="0.43"/><ellipse class="cls-34" cx="26" cy="52.12" rx="6.01" ry="0.39"/><ellipse class="cls-35" cx="26" cy="52.12" rx="5.49" ry="0.35"/><ellipse class="cls-36" cx="26" cy="52.12" rx="4.96" ry="0.32"/><ellipse class="cls-37" cx="26" cy="52.12" rx="4.44" ry="0.28"/><ellipse class="cls-38" cx="26" cy="52.12" rx="3.91" ry="0.25"/><ellipse class="cls-39" cx="26" cy="52.12" rx="3.39" ry="0.21"/><ellipse class="cls-40" cx="26" cy="52.12" rx="2.86" ry="0.17"/><ellipse class="cls-41" cx="26" cy="52.12" rx="2.34" ry="0.14"/><ellipse class="cls-42" cx="26" cy="52.12" rx="1.81" ry="0.1"/><ellipse class="cls-43" cx="26" cy="52.12" rx="1.29" ry="0.07"/><ellipse class="cls-44" cx="26" cy="52.12" rx="0.76" ry="0.03"/></g><g class="cls-45"><path class="cls-46" d="M27.6,48.36A21.31,21.31,0,1,1,48.91,27,21.34,21.34,0,0,1,27.6,48.36Z"/><path class="cls-47" d="M27.57,48.33A21.3,21.3,0,1,1,48.87,27,21.33,21.33,0,0,1,27.57,48.33Z"/><path class="cls-48" d="M27.54,48.31A21.29,21.29,0,1,1,48.83,27,21.32,21.32,0,0,1,27.54,48.31Z"/><path class="cls-49" d="M27.51,48.28A21.28,21.28,0,1,1,48.79,27,21.3,21.3,0,0,1,27.51,48.28Z"/><path class="cls-50" d="M27.48,48.26A21.27,21.27,0,1,1,48.75,27,21.29,21.29,0,0,1,27.48,48.26Z"/><path class="cls-51" d="M27.45,48.23A21.25,21.25,0,1,1,48.71,27,21.28,21.28,0,0,1,27.45,48.23Z"/><path class="cls-52" d="M27.42,48.21A21.24,21.24,0,1,1,48.67,27,21.27,21.27,0,0,1,27.42,48.21Z"/><path class="cls-53" d="M27.39,48.18A21.23,21.23,0,1,1,48.62,27,21.25,21.25,0,0,1,27.39,48.18Z"/><path class="cls-54" d="M27.37,48.16A21.22,21.22,0,1,1,48.58,26.94,21.24,21.24,0,0,1,27.37,48.16Z"/><path class="cls-55" d="M27.34,48.13A21.21,21.21,0,1,1,48.54,26.93,21.23,21.23,0,0,1,27.34,48.13Z"/><path class="cls-56" d="M27.31,48.1A21.19,21.19,0,1,1,48.5,26.91,21.22,21.22,0,0,1,27.31,48.1Z"/><path class="cls-57" d="M27.28,48.08A21.18,21.18,0,1,1,48.46,26.9,21.21,21.21,0,0,1,27.28,48.08Z"/><path class="cls-58" d="M27.25,48.05A21.17,21.17,0,1,1,48.42,26.89,21.19,21.19,0,0,1,27.25,48.05Z"/><path class="cls-59" d="M27.22,48A21.16,21.16,0,1,1,48.38,26.87,21.18,21.18,0,0,1,27.22,48Z"/><path class="cls-60" d="M27.19,48A21.14,21.14,0,1,1,48.34,26.86,21.17,21.17,0,0,1,27.19,48Z"/><path class="cls-61" d="M27.16,48A21.13,21.13,0,1,1,48.3,26.84,21.16,21.16,0,0,1,27.16,48Z"/><path class="cls-62" d="M27.13,48A21.12,21.12,0,1,1,48.25,26.83,21.14,21.14,0,0,1,27.13,48Z"/><path class="cls-63" d="M27.1,47.93A21.11,21.11,0,1,1,48.21,26.82,21.13,21.13,0,0,1,27.1,47.93Z"/><path class="cls-64" d="M27.08,47.9a21.1,21.1,0,1,1,21.1-21.1A21.12,21.12,0,0,1,27.08,47.9Z"/><path class="cls-65" d="M27,47.87A21.08,21.08,0,1,1,48.13,26.79,21.11,21.11,0,0,1,27,47.87Z"/><path class="cls-66" d="M27,47.85A21.07,21.07,0,1,1,48.09,26.78,21.1,21.1,0,0,1,27,47.85Z"/><path class="cls-67" d="M27,47.82A21.06,21.06,0,1,1,48,26.76,21.08,21.08,0,0,1,27,47.82Z"/><path class="cls-68" d="M27,47.8a21,21,0,1,1,21-21A21.07,21.07,0,0,1,27,47.8Z"/><path class="cls-69" d="M26.93,47.77a21,21,0,1,1,21-21A21.06,21.06,0,0,1,26.93,47.77Z"/><path class="cls-70" d="M26.9,47.75a21,21,0,1,1,21-21A21,21,0,0,1,26.9,47.75Z"/><path class="cls-71" d="M26.87,47.72a21,21,0,1,1,21-21A21,21,0,0,1,26.87,47.72Z"/><path class="cls-72" d="M26.84,47.7a21,21,0,1,1,21-21A21,21,0,0,1,26.84,47.7Z"/><path class="cls-73" d="M26.82,47.67a21,21,0,1,1,21-21A21,21,0,0,1,26.82,47.67Z"/><path class="cls-74" d="M26.79,47.64a21,21,0,1,1,21-21A21,21,0,0,1,26.79,47.64Z"/><path class="cls-75" d="M26.76,47.62a21,21,0,1,1,21-21A21,21,0,0,1,26.76,47.62Z"/><path class="cls-76" d="M26.73,47.59a21,21,0,1,1,21-21A21,21,0,0,1,26.73,47.59Z"/><path class="cls-77" d="M26.7,47.57A20.94,20.94,0,1,1,47.64,26.63,21,21,0,0,1,26.7,47.57Z"/><path class="cls-78" d="M26.67,47.54A20.93,20.93,0,1,1,47.6,26.62,21,21,0,0,1,26.67,47.54Z"/><path class="cls-79" d="M26.64,47.52A20.91,20.91,0,1,1,47.56,26.6,20.94,20.94,0,0,1,26.64,47.52Z"/><path class="cls-80" d="M26.61,47.49a20.9,20.9,0,1,1,20.9-20.9A20.93,20.93,0,0,1,26.61,47.49Z"/><path class="cls-81" d="M26.58,47.47A20.89,20.89,0,1,1,47.47,26.58,20.91,20.91,0,0,1,26.58,47.47Z"/><path class="cls-82" d="M26.55,47.44A20.88,20.88,0,1,1,47.43,26.56,20.9,20.9,0,0,1,26.55,47.44Z"/><path class="cls-83" d="M26.53,47.41A20.87,20.87,0,1,1,47.39,26.55,20.89,20.89,0,0,1,26.53,47.41Z"/><path class="cls-84" d="M26.5,47.39A20.85,20.85,0,1,1,47.35,26.54,20.88,20.88,0,0,1,26.5,47.39Z"/><path class="cls-85" d="M26.47,47.36A20.84,20.84,0,1,1,47.31,26.52,20.87,20.87,0,0,1,26.47,47.36Z"/><path class="cls-86" d="M26.44,47.34A20.83,20.83,0,1,1,47.27,26.51,20.85,20.85,0,0,1,26.44,47.34Z"/><path class="cls-87" d="M26.41,47.31A20.82,20.82,0,1,1,47.23,26.5,20.84,20.84,0,0,1,26.41,47.31Z"/><path class="cls-88" d="M26.38,47.29a20.8,20.8,0,1,1,20.8-20.8A20.83,20.83,0,0,1,26.38,47.29Z"/><path class="cls-89" d="M26.35,47.26A20.79,20.79,0,1,1,47.14,26.47,20.82,20.82,0,0,1,26.35,47.26Z"/><path class="cls-90" d="M26.32,47.24A20.78,20.78,0,1,1,47.1,26.46,20.8,20.8,0,0,1,26.32,47.24Z"/><path class="cls-91" d="M26.29,47.21A20.77,20.77,0,1,1,47.06,26.44,20.79,20.79,0,0,1,26.29,47.21Z"/><path class="cls-92" d="M26.27,47.18A20.76,20.76,0,1,1,47,26.43,20.78,20.78,0,0,1,26.27,47.18Z"/><path class="cls-93" d="M26.24,47.16A20.74,20.74,0,1,1,47,26.42,20.77,20.77,0,0,1,26.24,47.16Z"/><path class="cls-94" d="M26.21,47.13A20.73,20.73,0,1,1,46.94,26.4,20.76,20.76,0,0,1,26.21,47.13Z"/><path class="cls-95" d="M26.18,47.11A20.72,20.72,0,1,1,46.9,26.39,20.74,20.74,0,0,1,26.18,47.11Z"/><path class="cls-96" d="M26.15,47.08A20.71,20.71,0,1,1,46.86,26.37,20.73,20.73,0,0,1,26.15,47.08Z"/><path class="cls-97" d="M26.12,47.06a20.7,20.7,0,1,1,20.7-20.7A20.72,20.72,0,0,1,26.12,47.06Z"/><path class="cls-98" d="M26.09,47A20.68,20.68,0,1,1,46.77,26.35,20.71,20.71,0,0,1,26.09,47Z"/><path class="cls-99" d="M26.06,47A20.67,20.67,0,1,1,46.73,26.33,20.7,20.7,0,0,1,26.06,47Z"/><path class="cls-100" d="M26,47A20.66,20.66,0,1,1,46.69,26.32,20.68,20.68,0,0,1,26,47Z"/><path class="cls-101" d="M26,47A20.65,20.65,0,1,1,46.65,26.31,20.67,20.67,0,0,1,26,47Z"/><path class="cls-102" d="M26,46.93A20.64,20.64,0,1,1,46.61,26.29,20.66,20.66,0,0,1,26,46.93Z"/><path class="cls-103" d="M25.95,46.9A20.62,20.62,0,1,1,46.57,26.28,20.65,20.65,0,0,1,25.95,46.9Z"/><path class="cls-104" d="M25.92,46.88A20.61,20.61,0,1,1,46.53,26.27,20.63,20.63,0,0,1,25.92,46.88Z"/><path class="cls-105" d="M25.89,46.85a20.6,20.6,0,1,1,20.6-20.6A20.62,20.62,0,0,1,25.89,46.85Z"/><path class="cls-106" d="M25.86,46.83A20.59,20.59,0,1,1,46.45,26.24,20.61,20.61,0,0,1,25.86,46.83Z"/><path class="cls-107" d="M25.83,46.8A20.57,20.57,0,1,1,46.41,26.23,20.6,20.6,0,0,1,25.83,46.8Z"/><path class="cls-108" d="M25.8,46.78A20.56,20.56,0,1,1,46.36,26.21,20.59,20.59,0,0,1,25.8,46.78Z"/><path class="cls-109" d="M25.77,46.75A20.55,20.55,0,1,1,46.32,26.2,20.57,20.57,0,0,1,25.77,46.75Z"/><path class="cls-110" d="M25.74,46.72A20.54,20.54,0,1,1,46.28,26.19,20.56,20.56,0,0,1,25.74,46.72Z"/><path class="cls-111" d="M25.72,46.7A20.53,20.53,0,1,1,46.24,26.17,20.55,20.55,0,0,1,25.72,46.7Z"/><path class="cls-112" d="M25.69,46.67A20.51,20.51,0,1,1,46.2,26.16,20.54,20.54,0,0,1,25.69,46.67Z"/><path class="cls-113" d="M25.66,46.65a20.5,20.5,0,1,1,20.5-20.5A20.52,20.52,0,0,1,25.66,46.65Z"/><path class="cls-114" d="M25.63,46.62A20.49,20.49,0,1,1,46.12,26.13,20.51,20.51,0,0,1,25.63,46.62Z"/><path class="cls-115" d="M25.6,46.6A20.48,20.48,0,1,1,46.08,26.12,20.5,20.5,0,0,1,25.6,46.6Z"/><path class="cls-116" d="M25.57,46.57A20.47,20.47,0,1,1,46,26.11,20.49,20.49,0,0,1,25.57,46.57Z"/><path d="M25.54,46.55A20.45,20.45,0,1,1,46,26.09,20.48,20.48,0,0,1,25.54,46.55Z"/></g><path class="cls-117" d="M26,46.45A20.45,20.45,0,1,1,46.45,26,20.48,20.48,0,0,1,26,46.45Z"/><path class="cls-118" d="M25.57,20.85a1.08,1.08,0,0,0,1.08-1.08v-2.7a1.08,1.08,0,1,0-2.16,0v.54H21.92v2.16h2.57a1.08,1.08,0,0,0,1.08,1.08Zm0,0"/><path class="cls-119" d="M31.39,20.85a1.08,1.08,0,0,0,1.08-1.08v-2.7a1.08,1.08,0,1,0-2.16,0v.54H27.74v2.16H30.3a1.08,1.08,0,0,0,1.08,1.08Zm0,0"/><path class="cls-120" d="M36.39,17.6H33.55v2.16h1.76V23H15.84V19.76h2.84a1.08,1.08,0,1,0,2.16,0v-2.7a1.08,1.08,0,1,0-2.16,0v.54H14.75a1.08,1.08,0,0,0-1.08,1.08V34.91A1.08,1.08,0,0,0,14.75,36h5.56a6.42,6.42,0,0,1-1-2.16H15.84V24.09H35.31v9.73H31.85a6.51,6.51,0,0,1-1,2.16h5.56a1.08,1.08,0,0,0,1.08-1.08V18.68a1.08,1.08,0,0,0-1.08-1.08Zm0,0"/><path class="cls-121" d="M28.14,33.12l-1.71-1a.86.86,0,0,0-.36-.63v-3a.49.49,0,0,0-1,0v3A.86.86,0,0,0,25.94,33l1.71,1a.49.49,0,1,0,.49-.85Zm-2.56-.54a.37.37,0,1,1,.37-.37.37.37,0,0,1-.37.37Zm0,0"/><path class="cls-122" d="M25.57,26.79A5.41,5.41,0,1,0,31,32.2a5.42,5.42,0,0,0-5.41-5.41Zm0,9.84A4.43,4.43,0,1,1,30,32.2a4.43,4.43,0,0,1-4.43,4.43Zm0,0"/></svg>