<svg id="Layer_1" data-name="Layer 1" xmlns="http://www.w3.org/2000/svg" xmlns:xlink="http://www.w3.org/1999/xlink" viewBox="0 0 52 53.63"><defs><style>.cls-1{fill:url(#linear-gradient);}.cls-2{opacity:0.3;}.cls-3,.cls-46{opacity:0;}.cls-3{fill:url(#radial-gradient);}.cls-4{opacity:0.02;fill:url(#radial-gradient-2);}.cls-5{opacity:0.05;fill:url(#radial-gradient-3);}.cls-6{opacity:0.07;fill:url(#radial-gradient-4);}.cls-7{opacity:0.1;fill:url(#radial-gradient-5);}.cls-8{opacity:0.12;fill:url(#radial-gradient-6);}.cls-9{opacity:0.15;fill:url(#radial-gradient-7);}.cls-10{opacity:0.17;fill:url(#radial-gradient-8);}.cls-11{opacity:0.2;fill:url(#radial-gradient-9);}.cls-12{opacity:0.22;fill:url(#radial-gradient-10);}.cls-13{opacity:0.24;fill:url(#radial-gradient-11);}.cls-14{opacity:0.27;fill:url(#radial-gradient-12);}.cls-15{opacity:0.29;fill:url(#radial-gradient-13);}.cls-16{opacity:0.32;fill:url(#radial-gradient-14);}.cls-17{opacity:0.34;fill:url(#radial-gradient-15);}.cls-18{opacity:0.37;fill:url(#radial-gradient-16);}.cls-19{opacity:0.39;fill:url(#radial-gradient-17);}.cls-20{opacity:0.41;fill:url(#radial-gradient-18);}.cls-21{opacity:0.44;fill:url(#radial-gradient-19);}.cls-22{opacity:0.46;fill:url(#radial-gradient-20);}.cls-23{opacity:0.49;fill:url(#radial-gradient-21);}.cls-24{opacity:0.51;fill:url(#radial-gradient-22);}.cls-25{opacity:0.54;fill:url(#radial-gradient-23);}.cls-26{opacity:0.56;fill:url(#radial-gradient-24);}.cls-27{opacity:0.59;fill:url(#radial-gradient-25);}.cls-28{opacity:0.61;fill:url(#radial-gradient-26);}.cls-29{opacity:0.63;fill:url(#radial-gradient-27);}.cls-30{opacity:0.66;fill:url(#radial-gradient-28);}.cls-31{opacity:0.68;fill:url(#radial-gradient-29);}.cls-32{opacity:0.71;fill:url(#radial-gradient-30);}.cls-33{opacity:0.73;fill:url(#radial-gradient-31);}.cls-34{opacity:0.76;fill:url(#radial-gradient-32);}.cls-35{opacity:0.78;fill:url(#radial-gradient-33);}.cls-36{opacity:0.8;fill:url(#radial-gradient-34);}.cls-37{opacity:0.83;fill:url(#radial-gradient-35);}.cls-38{opacity:0.85;fill:url(#radial-gradient-36);}.cls-39{opacity:0.88;fill:url(#radial-gradient-37);}.cls-40{opacity:0.9;fill:url(#radial-gradient-38);}.cls-41{opacity:0.93;fill:url(#radial-gradient-39);}.cls-42{opacity:0.95;fill:url(#radial-gradient-40);}.cls-43{opacity:0.98;fill:url(#radial-gradient-41);}.cls-44{fill:url(#radial-gradient-42);}.cls-45{opacity:0.7;}.cls-47{opacity:0.01;}.cls-48{opacity:0.03;}.cls-49{opacity:0.04;}.cls-50{opacity:0.06;}.cls-51{opacity:0.07;}.cls-52{opacity:0.08;}.cls-53{opacity:0.1;}.cls-54{opacity:0.11;}.cls-55{opacity:0.13;}.cls-56{opacity:0.14;}.cls-57{opacity:0.15;}.cls-58{opacity:0.17;}.cls-59{opacity:0.18;}.cls-60{opacity:0.2;}.cls-61{opacity:0.21;}.cls-62{opacity:0.23;}.cls-63{opacity:0.24;}.cls-64{opacity:0.25;}.cls-65{opacity:0.27;}.cls-66{opacity:0.28;}.cls-67{opacity:0.3;}.cls-68{opacity:0.31;}.cls-69{opacity:0.32;}.cls-70{opacity:0.34;}.cls-71{opacity:0.35;}.cls-72{opacity:0.37;}.cls-73{opacity:0.38;}.cls-74{opacity:0.39;}.cls-75{opacity:0.41;}.cls-76{opacity:0.42;}.cls-77{opacity:0.44;}.cls-78{opacity:0.45;}.cls-79{opacity:0.46;}.cls-80{opacity:0.48;}.cls-81{opacity:0.49;}.cls-82{opacity:0.51;}.cls-83{opacity:0.52;}.cls-84{opacity:0.54;}.cls-85{opacity:0.55;}.cls-86{opacity:0.56;}.cls-87{opacity:0.58;}.cls-88{opacity:0.59;}.cls-89{opacity:0.61;}.cls-90{opacity:0.62;}.cls-91{opacity:0.63;}.cls-92{opacity:0.65;}.cls-93{opacity:0.66;}.cls-94{opacity:0.68;}.cls-95{opacity:0.69;}.cls-96{opacity:0.7;}.cls-97{opacity:0.72;}.cls-98{opacity:0.73;}.cls-99{opacity:0.75;}.cls-100{opacity:0.76;}.cls-101{opacity:0.77;}.cls-102{opacity:0.79;}.cls-103{opacity:0.8;}.cls-104{opacity:0.82;}.cls-105{opacity:0.83;}.cls-106{opacity:0.85;}.cls-107{opacity:0.86;}.cls-108{opacity:0.87;}.cls-109{opacity:0.89;}.cls-110{opacity:0.9;}.cls-111{opacity:0.92;}.cls-112{opacity:0.93;}.cls-113{opacity:0.94;}.cls-114{opacity:0.96;}.cls-115{opacity:0.97;}.cls-116{opacity:0.99;}.cls-117{stroke:#fff;stroke-miterlimit:10;stroke-width:0.74px;fill:url(#linear-gradient-2);}.cls-118{fill:url(#linear-gradient-3);}.cls-119{fill:url(#linear-gradient-4);}</style><linearGradient id="linear-gradient" y1="26" x2="52" y2="26" gradientUnits="userSpaceOnUse"><stop offset="0" stop-color="#f41b1a"/><stop offset="1" stop-color="#8f0707"/></linearGradient><radialGradient id="radial-gradient" cx="-1416.78" cy="355.58" r="3.66" gradientTransform="translate(10092.79 -77.95) scale(7.11 0.37)" gradientUnits="userSpaceOnUse"><stop offset="0"/><stop offset="1"/></radialGradient><radialGradient id="radial-gradient-2" cx="-1410.07" cy="370.01" r="3.68" gradientTransform="translate(9763.52 -79.63) scale(6.91 0.36)" xlink:href="#radial-gradient"/><radialGradient id="radial-gradient-3" cx="-1402.96" cy="385.25" r="3.69" gradientTransform="translate(9434.25 -81.32) scale(6.71 0.35)" xlink:href="#radial-gradient"/><radialGradient id="radial-gradient-4" cx="-1395.41" cy="401.37" r="3.7" gradientTransform="translate(9104.98 -83.01) scale(6.51 0.34)" xlink:href="#radial-gradient"/><radialGradient id="radial-gradient-5" cx="-1387.39" cy="418.45" r="3.72" gradientTransform="translate(8775.71 -84.69) scale(6.31 0.33)" xlink:href="#radial-gradient"/><radialGradient id="radial-gradient-6" cx="-1378.84" cy="436.57" r="3.73" gradientTransform="translate(8446.45 -86.38) scale(6.11 0.32)" xlink:href="#radial-gradient"/><radialGradient id="radial-gradient-7" cx="-1369.71" cy="455.84" r="3.75" gradientTransform="translate(8117.18 -88.07) scale(5.91 0.31)" xlink:href="#radial-gradient"/><radialGradient id="radial-gradient-8" cx="-1359.95" cy="476.36" r="3.77" gradientTransform="translate(7787.91 -89.75) scale(5.71 0.3)" xlink:href="#radial-gradient"/><radialGradient id="radial-gradient-9" cx="-1349.48" cy="498.27" r="3.79" gradientTransform="translate(7458.64 -91.44) scale(5.51 0.29)" xlink:href="#radial-gradient"/><radialGradient id="radial-gradient-10" cx="-1338.21" cy="521.7" r="3.81" gradientTransform="translate(7129.37 -93.13) scale(5.31 0.28)" xlink:href="#radial-gradient"/><radialGradient id="radial-gradient-11" cx="-1326.07" cy="546.83" r="3.83" gradientTransform="translate(6800.1 -94.81) scale(5.11 0.27)" xlink:href="#radial-gradient"/><radialGradient id="radial-gradient-12" cx="-1312.94" cy="573.84" r="3.86" gradientTransform="translate(6470.83 -96.5) scale(4.91 0.26)" xlink:href="#radial-gradient"/><radialGradient id="radial-gradient-13" cx="-1298.7" cy="602.96" r="3.88" gradientTransform="translate(6141.56 -98.18) scale(4.71 0.25)" xlink:href="#radial-gradient"/><radialGradient id="radial-gradient-14" cx="-1283.19" cy="634.44" r="3.91" gradientTransform="translate(5812.29 -99.87) scale(4.51 0.24)" xlink:href="#radial-gradient"/><radialGradient id="radial-gradient-15" cx="-1266.25" cy="668.57" r="3.94" gradientTransform="translate(5483.02 -101.56) scale(4.31 0.23)" xlink:href="#radial-gradient"/><radialGradient id="radial-gradient-16" cx="-1247.66" cy="705.72" r="3.98" gradientTransform="translate(5153.75 -103.24) scale(4.11 0.22)" xlink:href="#radial-gradient"/><radialGradient id="radial-gradient-17" cx="-1227.17" cy="746.29" r="4.01" gradientTransform="translate(4824.49 -104.93) scale(3.91 0.21)" xlink:href="#radial-gradient"/><radialGradient id="radial-gradient-18" cx="-1204.48" cy="790.8" r="4.05" gradientTransform="translate(4495.22 -106.62) scale(3.71 0.2)" xlink:href="#radial-gradient"/><radialGradient id="radial-gradient-19" cx="-1179.2" cy="839.82" r="4.1" gradientTransform="translate(4165.95 -108.3) scale(3.51 0.19)" xlink:href="#radial-gradient"/><radialGradient id="radial-gradient-20" cx="-1150.88" cy="894.09" r="4.15" gradientTransform="translate(3836.68 -109.99) scale(3.31 0.18)" xlink:href="#radial-gradient"/><radialGradient id="radial-gradient-21" cx="-1118.92" cy="954.51" r="4.21" gradientTransform="translate(3507.41 -111.68) scale(3.11 0.17)" xlink:href="#radial-gradient"/><radialGradient id="radial-gradient-22" cx="-1082.58" cy="1022.18" r="4.27" gradientTransform="translate(3178.14 -113.36) scale(2.91 0.16)" xlink:href="#radial-gradient"/><radialGradient id="radial-gradient-23" cx="-1040.88" cy="1098.48" r="4.35" gradientTransform="translate(2848.87 -115.05) scale(2.71 0.15)" xlink:href="#radial-gradient"/><radialGradient id="radial-gradient-24" cx="-992.56" cy="1185.17" r="4.43" gradientTransform="translate(2519.6 -116.74) scale(2.51 0.14)" xlink:href="#radial-gradient"/><radialGradient id="radial-gradient-25" cx="-935.89" cy="1284.55" r="4.53" gradientTransform="translate(2190.33 -118.42) scale(2.31 0.13)" xlink:href="#radial-gradient"/><radialGradient id="radial-gradient-26" cx="-868.51" cy="1399.62" r="4.64" gradientTransform="translate(1861.06 -120.11) scale(2.11 0.12)" xlink:href="#radial-gradient"/><radialGradient id="radial-gradient-27" cx="-787.06" cy="1534.39" r="4.78" gradientTransform="translate(1531.8 -121.8) scale(1.91 0.11)" xlink:href="#radial-gradient"/><radialGradient id="radial-gradient-28" cx="-686.62" cy="1694.42" r="4.95" gradientTransform="translate(1202.53 -123.48) scale(1.71 0.1)" xlink:href="#radial-gradient"/><radialGradient id="radial-gradient-29" cx="-559.69" cy="1887.54" r="5.16" gradientTransform="translate(873.26 -125.17) scale(1.51 0.09)" xlink:href="#radial-gradient"/><radialGradient id="radial-gradient-30" cx="-394.18" cy="2125.19" r="5.44" gradientTransform="translate(543.99 -126.85) scale(1.31 0.08)" xlink:href="#radial-gradient"/><radialGradient id="radial-gradient-31" cx="-169.35" cy="2424.77" r="5.8" gradientTransform="translate(214.72 -128.54) scale(1.11 0.07)" xlink:href="#radial-gradient"/><radialGradient id="radial-gradient-32" cx="153.66" cy="2814.15" r="6.31" gradientTransform="translate(-114.55 -130.23) scale(0.91 0.06)" xlink:href="#radial-gradient"/><radialGradient id="radial-gradient-33" cx="657.09" cy="3340.78" r="7.08" gradientTransform="translate(-443.82 -131.91) scale(0.71 0.06)" xlink:href="#radial-gradient"/><radialGradient id="radial-gradient-34" cx="1550.72" cy="4092.79" r="8.43" gradientTransform="translate(-773.09 -133.6) scale(0.52 0.05)" xlink:href="#radial-gradient"/><radialGradient id="radial-gradient-35" cx="3575.28" cy="5254.22" r="11.41" gradientTransform="translate(-1102.36 -135.29) scale(0.32 0.04)" xlink:href="#radial-gradient"/><radialGradient id="radial-gradient-36" cx="12576.59" cy="7284.53" r="24.8" gradientTransform="translate(-1431.63 -136.97) scale(0.12 0.03)" xlink:href="#radial-gradient"/><radialGradient id="radial-gradient-37" cx="-21323.33" cy="11741.32" r="30.02" gradientTransform="matrix(-0.08, 0, 0, 0.02, -1760.9, -138.66)" xlink:href="#radial-gradient"/><radialGradient id="radial-gradient-38" cx="-7464.42" cy="29433.84" r="20.17" gradientTransform="matrix(-0.28, 0, 0, 0.01, -2090.16, -140.35)" xlink:href="#radial-gradient"/><radialGradient id="radial-gradient-39" cx="-5060.91" cy="-61233.5" r="31.04" gradientTransform="translate(-2419.43 -142.03) rotate(180) scale(0.48 0)" xlink:href="#radial-gradient"/><radialGradient id="radial-gradient-40" cx="-4063.12" cy="-15204.51" r="5.92" gradientTransform="translate(-2748.7 -143.72) rotate(180) scale(0.68 0.01)" xlink:href="#radial-gradient"/><radialGradient id="radial-gradient-41" cx="-3516.85" cy="-8743.95" r="2.32" gradientTransform="translate(-3077.97 -145.41) rotate(180) scale(0.88 0.02)" xlink:href="#radial-gradient"/><radialGradient id="radial-gradient-42" cx="-3172.17" cy="-6167.63" r="0.83" gradientTransform="translate(-3407.24 -147.09) rotate(180) scale(1.08 0.03)" xlink:href="#radial-gradient"/><linearGradient id="linear-gradient-2" x1="11.66" y1="11.66" x2="40.57" y2="40.57" gradientUnits="userSpaceOnUse"><stop offset="0" stop-color="#c3c4c3"/><stop offset="0.22" stop-color="#dadada"/><stop offset="0.48" stop-color="#eeefee"/><stop offset="0.75" stop-color="#fbfbfb"/><stop offset="1" stop-color="#fff"/></linearGradient><linearGradient id="linear-gradient-3" x1="14.56" y1="28.18" x2="37.47" y2="28.18" xlink:href="#linear-gradient"/><linearGradient id="linear-gradient-4" x1="23.72" y1="21.67" x2="28.26" y2="21.67" xlink:href="#linear-gradient"/></defs><title>middlesex university lodon</title><circle class="cls-1" cx="26" cy="26" r="26"/><g class="cls-2"><ellipse class="cls-3" cx="26" cy="52.12" rx="22.28" ry="1.51"/><ellipse class="cls-4" cx="26" cy="52.12" rx="21.75" ry="1.47"/><ellipse class="cls-5" cx="26" cy="52.12" rx="21.23" ry="1.44"/><ellipse class="cls-6" cx="26" cy="52.12" rx="20.71" ry="1.4"/><ellipse class="cls-7" cx="26" cy="52.12" rx="20.18" ry="1.36"/><ellipse class="cls-8" cx="26" cy="52.12" rx="19.66" ry="1.33"/><ellipse class="cls-9" cx="26" cy="52.12" rx="19.13" ry="1.29"/><ellipse class="cls-10" cx="26" cy="52.12" rx="18.61" ry="1.26"/><ellipse class="cls-11" cx="26" cy="52.12" rx="18.08" ry="1.22"/><ellipse class="cls-12" cx="26" cy="52.12" rx="17.56" ry="1.18"/><ellipse class="cls-13" cx="26" cy="52.12" rx="17.03" ry="1.15"/><ellipse class="cls-14" cx="26" cy="52.12" rx="16.51" ry="1.11"/><ellipse class="cls-15" cx="26" cy="52.12" rx="15.98" ry="1.08"/><ellipse class="cls-16" cx="26" cy="52.12" rx="15.46" ry="1.04"/><ellipse class="cls-17" cx="26" cy="52.12" rx="14.93" ry="1"/><ellipse class="cls-18" cx="26" cy="52.12" rx="14.41" ry="0.97"/><ellipse class="cls-19" cx="26" cy="52.12" rx="13.88" ry="0.93"/><ellipse class="cls-20" cx="26" cy="52.12" rx="13.36" ry="0.9"/><ellipse class="cls-21" cx="26" cy="52.12" rx="12.83" ry="0.86"/><ellipse class="cls-22" cx="26" cy="52.12" rx="12.31" ry="0.82"/><ellipse class="cls-23" cx="26" cy="52.12" rx="11.78" ry="0.79"/><ellipse class="cls-24" cx="26" cy="52.12" rx="11.26" ry="0.75"/><ellipse class="cls-25" cx="26" cy="52.12" rx="10.73" ry="0.72"/><ellipse class="cls-26" cx="26" cy="52.12" rx="10.21" ry="0.68"/><ellipse class="cls-27" cx="26" cy="52.12" rx="9.69" ry="0.64"/><ellipse class="cls-28" cx="26" cy="52.12" rx="9.16" ry="0.61"/><ellipse class="cls-29" cx="26" cy="52.12" rx="8.64" ry="0.57"/><ellipse class="cls-30" cx="26" cy="52.12" rx="8.11" ry="0.54"/><ellipse class="cls-31" cx="26" cy="52.12" rx="7.59" ry="0.5"/><ellipse class="cls-32" cx="26" cy="52.12" rx="7.06" ry="0.46"/><ellipse class="cls-33" cx="26" cy="52.12" rx="6.54" ry="0.43"/><ellipse class="cls-34" cx="26" cy="52.12" rx="6.01" ry="0.39"/><ellipse class="cls-35" cx="26" cy="52.12" rx="5.49" ry="0.35"/><ellipse class="cls-36" cx="26" cy="52.12" rx="4.96" ry="0.32"/><ellipse class="cls-37" cx="26" cy="52.12" rx="4.44" ry="0.28"/><ellipse class="cls-38" cx="26" cy="52.12" rx="3.91" ry="0.25"/><ellipse class="cls-39" cx="26" cy="52.12" rx="3.39" ry="0.21"/><ellipse class="cls-40" cx="26" cy="52.12" rx="2.86" ry="0.17"/><ellipse class="cls-41" cx="26" cy="52.12" rx="2.34" ry="0.14"/><ellipse class="cls-42" cx="26" cy="52.12" rx="1.81" ry="0.1"/><ellipse class="cls-43" cx="26" cy="52.12" rx="1.29" ry="0.07"/><ellipse class="cls-44" cx="26" cy="52.12" rx="0.76" ry="0.03"/></g><g class="cls-45"><path class="cls-46" d="M27.6,48.36A21.31,21.31,0,1,1,48.91,27,21.34,21.34,0,0,1,27.6,48.36Z"/><path class="cls-47" d="M27.57,48.33A21.3,21.3,0,1,1,48.87,27,21.33,21.33,0,0,1,27.57,48.33Z"/><path class="cls-48" d="M27.54,48.31A21.29,21.29,0,1,1,48.83,27,21.32,21.32,0,0,1,27.54,48.31Z"/><path class="cls-49" d="M27.51,48.28A21.28,21.28,0,1,1,48.79,27,21.3,21.3,0,0,1,27.51,48.28Z"/><path class="cls-50" d="M27.48,48.26A21.27,21.27,0,1,1,48.75,27,21.29,21.29,0,0,1,27.48,48.26Z"/><path class="cls-51" d="M27.45,48.23A21.25,21.25,0,1,1,48.71,27,21.28,21.28,0,0,1,27.45,48.23Z"/><path class="cls-52" d="M27.42,48.21A21.24,21.24,0,1,1,48.67,27,21.27,21.27,0,0,1,27.42,48.21Z"/><path class="cls-53" d="M27.39,48.18A21.23,21.23,0,1,1,48.62,27,21.25,21.25,0,0,1,27.39,48.18Z"/><path class="cls-54" d="M27.37,48.16A21.22,21.22,0,1,1,48.58,26.94,21.24,21.24,0,0,1,27.37,48.16Z"/><path class="cls-55" d="M27.34,48.13A21.21,21.21,0,1,1,48.54,26.93,21.23,21.23,0,0,1,27.34,48.13Z"/><path class="cls-56" d="M27.31,48.1A21.19,21.19,0,1,1,48.5,26.91,21.22,21.22,0,0,1,27.31,48.1Z"/><path class="cls-57" d="M27.28,48.08A21.18,21.18,0,1,1,48.46,26.9,21.21,21.21,0,0,1,27.28,48.08Z"/><path class="cls-58" d="M27.25,48.05A21.17,21.17,0,1,1,48.42,26.89,21.19,21.19,0,0,1,27.25,48.05Z"/><path class="cls-59" d="M27.22,48A21.16,21.16,0,1,1,48.38,26.87,21.18,21.18,0,0,1,27.22,48Z"/><path class="cls-60" d="M27.19,48A21.14,21.14,0,1,1,48.34,26.86,21.17,21.17,0,0,1,27.19,48Z"/><path class="cls-61" d="M27.16,48A21.13,21.13,0,1,1,48.3,26.84,21.16,21.16,0,0,1,27.16,48Z"/><path class="cls-62" d="M27.13,48A21.12,21.12,0,1,1,48.25,26.83,21.14,21.14,0,0,1,27.13,48Z"/><path class="cls-63" d="M27.1,47.93A21.11,21.11,0,1,1,48.21,26.82,21.13,21.13,0,0,1,27.1,47.93Z"/><path class="cls-64" d="M27.08,47.9a21.1,21.1,0,1,1,21.1-21.1A21.12,21.12,0,0,1,27.08,47.9Z"/><path class="cls-65" d="M27,47.87A21.08,21.08,0,1,1,48.13,26.79,21.11,21.11,0,0,1,27,47.87Z"/><path class="cls-66" d="M27,47.85A21.07,21.07,0,1,1,48.09,26.78,21.1,21.1,0,0,1,27,47.85Z"/><path class="cls-67" d="M27,47.82A21.06,21.06,0,1,1,48,26.76,21.08,21.08,0,0,1,27,47.82Z"/><path class="cls-68" d="M27,47.8a21,21,0,1,1,21-21A21.07,21.07,0,0,1,27,47.8Z"/><path class="cls-69" d="M26.93,47.77a21,21,0,1,1,21-21A21.06,21.06,0,0,1,26.93,47.77Z"/><path class="cls-70" d="M26.9,47.75a21,21,0,1,1,21-21A21,21,0,0,1,26.9,47.75Z"/><path class="cls-71" d="M26.87,47.72a21,21,0,1,1,21-21A21,21,0,0,1,26.87,47.72Z"/><path class="cls-72" d="M26.84,47.7a21,21,0,1,1,21-21A21,21,0,0,1,26.84,47.7Z"/><path class="cls-73" d="M26.82,47.67a21,21,0,1,1,21-21A21,21,0,0,1,26.82,47.67Z"/><path class="cls-74" d="M26.79,47.64a21,21,0,1,1,21-21A21,21,0,0,1,26.79,47.64Z"/><path class="cls-75" d="M26.76,47.62a21,21,0,1,1,21-21A21,21,0,0,1,26.76,47.62Z"/><path class="cls-76" d="M26.73,47.59a21,21,0,1,1,21-21A21,21,0,0,1,26.73,47.59Z"/><path class="cls-77" d="M26.7,47.57A20.94,20.94,0,1,1,47.64,26.63,21,21,0,0,1,26.7,47.57Z"/><path class="cls-78" d="M26.67,47.54A20.93,20.93,0,1,1,47.6,26.62,21,21,0,0,1,26.67,47.54Z"/><path class="cls-79" d="M26.64,47.52A20.91,20.91,0,1,1,47.56,26.6,20.94,20.94,0,0,1,26.64,47.52Z"/><path class="cls-80" d="M26.61,47.49a20.9,20.9,0,1,1,20.9-20.9A20.93,20.93,0,0,1,26.61,47.49Z"/><path class="cls-81" d="M26.58,47.47A20.89,20.89,0,1,1,47.47,26.58,20.91,20.91,0,0,1,26.58,47.47Z"/><path class="cls-82" d="M26.55,47.44A20.88,20.88,0,1,1,47.43,26.56,20.9,20.9,0,0,1,26.55,47.44Z"/><path class="cls-83" d="M26.53,47.41A20.87,20.87,0,1,1,47.39,26.55,20.89,20.89,0,0,1,26.53,47.41Z"/><path class="cls-84" d="M26.5,47.39A20.85,20.85,0,1,1,47.35,26.54,20.88,20.88,0,0,1,26.5,47.39Z"/><path class="cls-85" d="M26.47,47.36A20.84,20.84,0,1,1,47.31,26.52,20.87,20.87,0,0,1,26.47,47.36Z"/><path class="cls-86" d="M26.44,47.34A20.83,20.83,0,1,1,47.27,26.51,20.85,20.85,0,0,1,26.44,47.34Z"/><path class="cls-87" d="M26.41,47.31A20.82,20.82,0,1,1,47.23,26.5,20.84,20.84,0,0,1,26.41,47.31Z"/><path class="cls-88" d="M26.38,47.29a20.8,20.8,0,1,1,20.8-20.8A20.83,20.83,0,0,1,26.38,47.29Z"/><path class="cls-89" d="M26.35,47.26A20.79,20.79,0,1,1,47.14,26.47,20.82,20.82,0,0,1,26.35,47.26Z"/><path class="cls-90" d="M26.32,47.24A20.78,20.78,0,1,1,47.1,26.46,20.8,20.8,0,0,1,26.32,47.24Z"/><path class="cls-91" d="M26.29,47.21A20.77,20.77,0,1,1,47.06,26.44,20.79,20.79,0,0,1,26.29,47.21Z"/><path class="cls-92" d="M26.27,47.18A20.76,20.76,0,1,1,47,26.43,20.78,20.78,0,0,1,26.27,47.18Z"/><path class="cls-93" d="M26.24,47.16A20.74,20.74,0,1,1,47,26.42,20.77,20.77,0,0,1,26.24,47.16Z"/><path class="cls-94" d="M26.21,47.13A20.73,20.73,0,1,1,46.94,26.4,20.76,20.76,0,0,1,26.21,47.13Z"/><path class="cls-95" d="M26.18,47.11A20.72,20.72,0,1,1,46.9,26.39,20.74,20.74,0,0,1,26.18,47.11Z"/><path class="cls-96" d="M26.15,47.08A20.71,20.71,0,1,1,46.86,26.37,20.73,20.73,0,0,1,26.15,47.08Z"/><path class="cls-97" d="M26.12,47.06a20.7,20.7,0,1,1,20.7-20.7A20.72,20.72,0,0,1,26.12,47.06Z"/><path class="cls-98" d="M26.09,47A20.68,20.68,0,1,1,46.77,26.35,20.71,20.71,0,0,1,26.09,47Z"/><path class="cls-99" d="M26.06,47A20.67,20.67,0,1,1,46.73,26.33,20.7,20.7,0,0,1,26.06,47Z"/><path class="cls-100" d="M26,47A20.66,20.66,0,1,1,46.69,26.32,20.68,20.68,0,0,1,26,47Z"/><path class="cls-101" d="M26,47A20.65,20.65,0,1,1,46.65,26.31,20.67,20.67,0,0,1,26,47Z"/><path class="cls-102" d="M26,46.93A20.64,20.64,0,1,1,46.61,26.29,20.66,20.66,0,0,1,26,46.93Z"/><path class="cls-103" d="M25.95,46.9A20.62,20.62,0,1,1,46.57,26.28,20.65,20.65,0,0,1,25.95,46.9Z"/><path class="cls-104" d="M25.92,46.88A20.61,20.61,0,1,1,46.53,26.27,20.63,20.63,0,0,1,25.92,46.88Z"/><path class="cls-105" d="M25.89,46.85a20.6,20.6,0,1,1,20.6-20.6A20.62,20.62,0,0,1,25.89,46.85Z"/><path class="cls-106" d="M25.86,46.83A20.59,20.59,0,1,1,46.45,26.24,20.61,20.61,0,0,1,25.86,46.83Z"/><path class="cls-107" d="M25.83,46.8A20.57,20.57,0,1,1,46.41,26.23,20.6,20.6,0,0,1,25.83,46.8Z"/><path class="cls-108" d="M25.8,46.78A20.56,20.56,0,1,1,46.36,26.21,20.59,20.59,0,0,1,25.8,46.78Z"/><path class="cls-109" d="M25.77,46.75A20.55,20.55,0,1,1,46.32,26.2,20.57,20.57,0,0,1,25.77,46.75Z"/><path class="cls-110" d="M25.74,46.72A20.54,20.54,0,1,1,46.28,26.19,20.56,20.56,0,0,1,25.74,46.72Z"/><path class="cls-111" d="M25.72,46.7A20.53,20.53,0,1,1,46.24,26.17,20.55,20.55,0,0,1,25.72,46.7Z"/><path class="cls-112" d="M25.69,46.67A20.51,20.51,0,1,1,46.2,26.16,20.54,20.54,0,0,1,25.69,46.67Z"/><path class="cls-113" d="M25.66,46.65a20.5,20.5,0,1,1,20.5-20.5A20.52,20.52,0,0,1,25.66,46.65Z"/><path class="cls-114" d="M25.63,46.62A20.49,20.49,0,1,1,46.12,26.13,20.51,20.51,0,0,1,25.63,46.62Z"/><path class="cls-115" d="M25.6,46.6A20.48,20.48,0,1,1,46.08,26.12,20.5,20.5,0,0,1,25.6,46.6Z"/><path class="cls-116" d="M25.57,46.57A20.47,20.47,0,1,1,46,26.11,20.49,20.49,0,0,1,25.57,46.57Z"/><path d="M25.54,46.55A20.45,20.45,0,1,1,46,26.09,20.48,20.48,0,0,1,25.54,46.55Z"/></g><path class="cls-117" d="M26,46.45A20.45,20.45,0,1,1,46.45,26,20.48,20.48,0,0,1,26,46.45Z"/><path class="cls-118" d="M14.57,15.92l2.59-.2c2.24-.17,4.48-.3,6.71-.51a26.47,26.47,0,0,1,4.75.06c1.61.14,3.23.25,4.84.38l3.66.27c.2,0,.31.06.31.31,0,2.42.11,4.84,0,7.25a20.93,20.93,0,0,1-5.69,13.79,17.55,17.55,0,0,1-5.35,3.85.79.79,0,0,1-.74,0A18.21,18.21,0,0,1,18.45,35a21.38,21.38,0,0,1-3.55-9,39.46,39.46,0,0,1-.33-6.91C14.59,18,14.57,17,14.57,15.92Zm7.3,11.38.21-.08a10.51,10.51,0,0,1,5.73.07.46.46,0,0,0,.6-.15.88.88,0,0,1,1.08-.31,1,1,0,0,1,.35,1.11c0,.07-.05.14-.07.22s0,.13,0,.15c.27.21.42.58.86.57,1,0,1.95,0,2.92,0h.54a2,2,0,0,0-.45-1.08A5.38,5.38,0,0,0,31.15,26a12.66,12.66,0,0,0-8.36-.34c-.49.15-1,.32-1.46.47-.11-.35-.1-.42.08-.56s.28-.41.13-.58a.42.42,0,0,0-.63.05,1.2,1.2,0,0,0-.28,1,.41.41,0,0,1-.4.5,1.07,1.07,0,0,0-.34.16c-.07,0-.14.14-.2.13-.39,0-.58.38-1,.39-.12,0-.31.22-.54.22-.08,0-.18.12-.23.21a.77.77,0,0,0,.26.91c.24.16.42.12.69-.19.09,0,.2.07.25,0A6.54,6.54,0,0,1,20,28c.14-.06.24-.18.42-.15a.25.25,0,0,0,.21-.07c.17-.25.4-.16.63-.16a.4.4,0,0,1-.22.55.48.48,0,0,0-.15.43.43.43,0,0,0,.37.21.9.9,0,0,0,.46-.32A1.36,1.36,0,0,0,21.88,27.31ZM22.24,31l-.11,0a1.34,1.34,0,0,1,.19-.4c.16-.16.21-.32.06-.48a.31.31,0,0,0-.49,0,1,1,0,0,0-.28.84c0,.32-.08.43-.39.52a5.63,5.63,0,0,0-.76.34c-.29.13-.58.25-.85.4a.62.62,0,0,0-.3.33.54.54,0,0,0,.31.65.64.64,0,0,0,.41-.05c.25-.09.49-.22.75-.31s.57-.17.86-.27l.51-.19.08.12a1.81,1.81,0,0,1-.23.24c-.17.12-.26.29-.12.44a.48.48,0,0,0,.44.09.84.84,0,0,0,.35-.44,3.48,3.48,0,0,0,.09-.73,8.23,8.23,0,0,1,4.38-.12.42.42,0,0,0,.52-.14.85.85,0,0,1,1-.29.8.8,0,0,1,.33.95.53.53,0,0,0,.23.6.84.84,0,0,0,.65.24c.45,0,.9,0,1.35,0h1.32a4,4,0,0,0-.13-.45,3.13,3.13,0,0,0-1.34-1.44,9.19,9.19,0,0,0-6.34-1C23.89,30.48,23.07,30.75,22.24,31Zm5.75-11-1.3-.21c-.08,0-.2-.06-.21-.1a6.94,6.94,0,0,1-.18-1.16c0-.14.19-.29.3-.44a.17.17,0,0,0,0-.06.92.92,0,0,1-.13-.38.52.52,0,0,0-.52-.51.52.52,0,0,0-.52.52,3.1,3.1,0,0,1-.11.45c.39.21.33.59.24,1a2.64,2.64,0,0,0-.06.42c0,.21-.11.3-.32.32s-.69.11-1,.16c-.08,0-.22,0-.24-.06-.22-.39-.72-.71-.37-1.23a3.57,3.57,0,0,1-.29-.37.52.52,0,0,0-.69-.25.54.54,0,0,0-.25.7,3.57,3.57,0,0,1,.1.47c.52,0,.53.43.61.81a11.06,11.06,0,0,1,.24,1.29,1.12,1.12,0,0,0,.88,1,6,6,0,0,0,2.72.22,6.41,6.41,0,0,0,1.29-.34.88.88,0,0,0,.58-.8c.06-.44.15-.88.23-1.32s.13-.84.63-.88c0-.2.07-.35.11-.5a.53.53,0,0,0-.28-.66.52.52,0,0,0-.67.23c-.08.13-.19.24-.3.39C28.58,19.17,28.53,19.33,28,19.94Zm2.93,17a1.72,1.72,0,0,0-.18-.51,4.39,4.39,0,0,0-.9-.93,6.79,6.79,0,0,0-4.45-.87,20.59,20.59,0,0,0-2.31.49,1.21,1.21,0,0,1,.16-.36c.14-.15.19-.31,0-.42s-.38,0-.42,0a2,2,0,0,0-.22.72c0,.2-.06.33-.28.36a.7.7,0,0,0-.18.07c-.38.17-.76.36-1.14.52a.38.38,0,0,0-.22.54c.07.21.22.39.47.31s.68-.29,1-.42.49-.15.74-.23l.07.09a1.65,1.65,0,0,1-.19.24c-.14.12-.24.28-.08.41a.46.46,0,0,0,.42,0,.72.72,0,0,0,.3-.75c0-.17,0-.26.2-.3a6.16,6.16,0,0,1,2.79-.09.49.49,0,0,0,.55-.14.64.64,0,0,1,.81-.15.68.68,0,0,1,.28.75.56.56,0,0,0,.49.62C29.41,37,30.12,37,30.92,37Z"/><path class="cls-119" d="M26,22.13l-1.8-.24a.44.44,0,0,1-.19-.06,3,3,0,0,1-.26-.22c.08-.08.16-.19.25-.22a3.84,3.84,0,0,1,1-.18c.93,0,1.87,0,2.8.11.18,0,.35.18.52.28a1.81,1.81,0,0,1-.53.31C27.15,22,26.57,22.05,26,22.13Z"/></svg>